<?xml version="1.0" standalone="no"?>
<!DOCTYPE svg PUBLIC "-//W3C//DTD SVG 1.1//EN" "http://www.w3.org/Graphics/SVG/1.1/DTD/svg11.dtd" >
<svg xmlns="http://www.w3.org/2000/svg">
<metadata>Generated by IcoMoon</metadata>
<defs>
<font id="uricon" horiz-adv-x="1024">
<font-face units-per-em="1024" ascent="960" descent="-64" />
<missing-glyph horiz-adv-x="1024" />
<glyph unicode="&#x20;" horiz-adv-x="512" d="" />
<glyph unicode="&#xe900;" glyph-name="light" d="M496.435 811.856c-0.197 0-0.197 0 0 0l-342.192-341.796c-5.91-5.91-9.259-13.988-9.259-22.655 0-8.474 3.348-16.35 9.259-22.655l340.225-340.225c2.957-2.957 6.499-4.531 10.836-4.531 8.474 0 15.367 6.893 15.367 15.367 0 4.728-1.968 9.062-5.515 11.628l-323.875 324.266h672.564c8.474 0 15.17 6.7 15.17 15.17v0.395c0 8.474-6.7 15.17-15.17 15.17h-673.154c-0.395 0-0.588 0-0.983 0l327.026 326.825c3.348 2.957 5.515 6.893 5.515 11.628 0 8.474-6.893 15.367-15.367 15.367-4.136 0.197-7.879-1.379-10.441-3.943z" />
<glyph unicode="&#xe901;" glyph-name="ztz" d="M953.604 407.834c-4.596 5.194-11.189 8.191-17.985 8.191h-455.594v455.394c0 6.993-2.998 13.589-8.191 18.185s-12.19 6.792-19.183 5.795c-106.704-14.587-204.817-67.34-276.352-148.665-72.137-81.927-111.902-187.433-111.902-296.734 0-120.494 46.758-233.393 131.482-318.117s197.824-131.482 318.117-131.482c109.301 0 214.807 39.765 296.934 111.902 81.326 71.536 134.079 169.648 148.665 276.553 0.798 6.792-1.399 13.789-5.995 18.983zM790.949 134.88c-76.533-67.34-174.845-104.508-276.953-104.508-112.499 0-218.005 43.56-296.934 122.69-79.13 78.929-122.69 184.435-122.69 296.934 0 102.108 37.168 200.421 104.308 276.953 65.34 74.132 154.264 122.89 251.374 137.878v-451.795c0-7.394 2.998-13.986 8.391-18.582 4.596-5.394 11.189-8.391 18.582-8.391h451.795c-14.988-96.914-63.742-186.034-137.878-251.174zM573.545 483.966h357.481c8.191 0 15.985 3.598 21.379 9.79s7.794 14.386 6.594 22.381v0c-14.186 96.514-58.548 184.034-128.284 253.174s-157.658 112.699-254.372 126.088c-7.193 0.998-14.186-1.198-19.584-5.795-5.394-4.797-8.592-11.589-8.592-18.783v-361.276c-0.2-14.186 11.189-25.578 25.379-25.578zM577.941 864.827c51.954-7.994 101.11-25.178 145.67-51.154h-145.67v51.154zM577.941 783.701h187.232v2.597c15.585-11.589 30.372-24.377 44.362-38.367 3.995-3.795 7.794-7.794 11.589-11.79h-243.183v47.558zM577.941 706.171h268.561c11.79-15.188 22.381-31.173 31.971-47.558h-300.533v47.558zM577.941 628.44h316.117c7.193-15.386 13.589-31.374 18.783-47.558h-334.9v47.558zM577.941 550.909h343.492c2.998-12.19 5.394-24.377 7.394-36.968h-350.885v36.968z" />
<glyph unicode="&#xe902;" glyph-name="zxm" d="M621.558 548.556c0.194 0 0.194-0.194 0 0 5.816-5.816 15.126-5.816 20.75-0.194s5.622 14.931 0 20.557c0 0 0 0 0 0v0c-30.252 29.089-71.169 46.929-116.159 46.929-92.499 0-167.742-75.24-167.742-167.742s75.24-167.742 167.742-167.742c44.213 0 84.551 17.259 114.609 45.378v0c5.429 5.622 5.235 14.736-0.194 20.363-5.622 5.622-14.931 5.622-20.557 0 0 0-0.194-0.194-0.194-0.194-24.629-22.688-57.593-36.456-93.665-36.456-76.406 0-138.653 62.247-138.653 138.653s62.247 138.653 138.653 138.653c37.041 0 70.586-14.543 95.409-38.203zM954.136 189.024l-58.953 258.691 61.859 259.272c2.716 11.249-2.328 22.688-12.411 28.314s-22.494 3.879-30.639-4.266l-266.254-266.254c-4.848-4.848-7.564-11.249-7.564-18.034s2.716-13.38 7.564-18.228l263.344-263.344c5.041-5.041 11.443-7.564 18.034-7.564 4.266 0 8.533 0.969 12.411 3.298 10.083 5.622 15.126 16.871 12.605 28.119zM670.816 446.552l255.199 255.199-59.147-248.221c-0.969-3.879-0.969-7.758 0-11.636l56.431-247.831-252.487 252.487zM737.523 664.327c-0.194 0.194-0.581 0.581-0.775 0.775-54.493 52.939-128.764 85.52-210.599 85.52-166.773 0-302.516-135.744-302.516-302.516s135.744-302.516 302.516-302.516c80.672 0 153.974 31.802 208.27 83.191 0.387 0.387 0.969 0.775 1.356 1.162 5.622 5.622 5.622 14.931 0 20.557s-14.349 5.622-20.169 0.387v0c-49.254-47.123-115.965-76.212-189.461-76.212-150.677 0-273.427 122.751-273.427 273.427s122.751 273.427 273.427 273.427c74.271 0 141.563-29.67 190.817-77.956v0c5.622-5.429 14.736-5.429 20.363 0.194 5.816 5.816 5.816 14.931 0.194 20.557zM837.588 149.465c-5.622 5.622-14.736 5.622-20.557 0v0c-78.343-76.406-181.316-118.29-290.881-118.29-111.311 0-216.028 43.438-294.758 122.169s-122.169 183.451-122.169 294.758c0 111.311 43.438 216.028 122.169 294.758 77.956 77.956 181.122 121.2 291.271 122.169 110.536 0.969 217.384-42.276 296.119-119.844v0c5.622-5.041 14.349-4.654 19.782 0.775s5.622 14.155 0.775 19.782v0c0 0-0.194 0.194-0.194 0.194-0.194 0.194-0.387 0.387-0.581 0.581-0.387 0.387-0.775 0.775-1.162 0.969-83.772 81.641-194.115 126.629-311.242 126.629-119.069 0-231.155-46.348-315.315-130.701-100.062-100.062-146.604-239.104-125.66-382.801 10.47-71.364 38.397-139.040 81.447-196.831 86.876-116.353 218.163-181.897 359.528-181.897 117.128 0 227.276 44.794 310.855 126.241 0.194 0.194 0.387 0.387 0.581 0.387 5.622 6.010 5.622 15.126 0 20.944z" />
<glyph unicode="&#xe903;" glyph-name="bgw" d="M902.746 750.823h-781.485c-15.578 0-28.077-12.5-28.077-28.077v-47.098c0-15.578 12.5-28.077 28.077-28.077h37.678v-465.196c0-3.802 3.081-6.883 6.883-6.883h13.404c3.802 0 6.883 3.081 6.883 6.883v465.196h386.578c0-0.363 0-0.544 0-0.907v-442.008c0-15.578 12.5-28.077 28.077-28.077h248.175c15.578 0 28.077 12.5 28.077 28.077v442.008c0 0.363 0 0.544 0 0.907h25.722c15.578 0 28.077 12.5 28.077 28.077v47.098c0 15.4-12.682 28.077-28.077 28.077zM849.849 204.472c0-0.544-0.363-0.907-0.907-0.907h-248.175c-0.544 0-0.907 0.363-0.907 0.907v125.899h249.991v-125.899zM849.849 357.725h-249.991v134.051h249.991v-134.051zM849.849 518.951h-249.991v127.713c0 0.544 0.363 0.907 0.907 0.907h248.175c0.544 0 0.907-0.363 0.907-0.907v-127.713zM903.651 675.463c0-0.544-0.363-0.907-0.907-0.907h-781.485c-0.544 0-0.907 0.363-0.907 0.907v47.098c0 0.544 0.363 0.907 0.907 0.907h781.304c0.544 0 0.907-0.363 0.907-0.907v-47.098zM715.798 405.004h18.113c6.883 0 12.682 5.617 12.682 12.682v1.811c0 6.883-5.617 12.682-12.682 12.682h-18.113c-6.883 0-12.682-5.617-12.682-12.682v-1.811c0-6.883 5.799-12.682 12.682-12.682zM733.911 593.222h-18.113c-6.883 0-12.682-5.617-12.682-12.682v-1.811c0-6.883 5.617-12.682 12.682-12.682h18.113c6.883 0 12.682 5.617 12.682 12.682v1.811c0 6.883-5.617 12.682-12.682 12.682zM715.798 249.578h18.113c6.883 0 12.682 5.617 12.682 12.682v1.811c0 6.883-5.617 12.682-12.682 12.682h-18.113c-6.883 0-12.682-5.617-12.682-12.682v-1.811c0-7.065 5.799-12.682 12.682-12.682z" />
<glyph unicode="&#xe904;" glyph-name="cd" d="M870.253 359.17v394.92c0 15.504-12.588 28.092-28.092 28.092h-647.557c-15.504 0-28.092-12.588-28.092-28.092v-394.371l-63.842-118.020v-69.317c0-15.504 12.588-28.092 28.092-28.092h762.476c15.504 0 28.092 12.588 28.092 28.092v68.585l-51.076 118.2zM842.894 754.272v-386.346h-84.821c-0.548 0-0.911 0.183-1.277 0.548s-0.548 0.911-0.366 1.277c7.297 46.15 32.104 146.109 32.468 147.024l1.824 7.663-5.653 5.472c-37.028 36.483-43.779 169.459-43.413 224.911h100.508c0.366 0.183 0.728-0.183 0.728-0.548zM194.604 755.001h101.969c0-14.044-0.366-52.353-4.559-94.123-6.748-66.397-20.613-112.914-38.854-130.789l-5.653-5.472 1.824-7.663c0.183-1.094 25.904-103.79 32.651-149.030h-88.47v386.346c0.366 0.366 0.728 0.728 1.094 0.728zM187.124 340.565h96.132c7.663 0 14.959 3.282 20.064 9.12s7.297 13.499 6.203 21.16c-5.836 39.582-25.538 120.938-31.557 145.565 20.613 25.172 34.476 72.782 41.408 141.55 4.376 43.413 4.742 82.084 4.742 96.86h390.359c0-14.776 0.366-53.63 4.742-96.86 6.93-68.951 20.979-116.379 41.408-141.55-5.836-23.894-24.808-101.602-31.191-142.28-1.277-8.391 1.094-16.964 6.568-23.35s13.682-10.216 22.073-10.216h90.474l43.596-100.692h-759.558l54.541 100.692zM893.237 171.835h-762.476c-0.366 0-0.728 0.366-0.728 0.728v39.765h763.936v-39.765c0-0.366-0.366-0.728-0.728-0.728zM472.234 460.955c4.559-5.292 12.588-6.019 18.058-1.46l6.203 5.292v-175.112c-4.015-1.643-6.748-5.653-6.748-10.034v-5.472c0-6.019 4.925-10.945 10.945-10.945h18.788c6.019 0 10.945 4.925 10.945 10.945v5.472c0 4.559-2.737 8.391-6.748 10.034v197.002c3.648-1.643 7.663-2.554 12.039-2.554 16.598 0 30.097 13.499 30.097 30.097s-13.499 30.097-30.097 30.097c-16.598 0-30.097-13.499-30.097-30.097 0-2.005 0.183-4.015 0.548-5.836-1.277-0.548-2.371-1.277-3.465-2.188l-30.28-25.721c-5.292-4.559-6.019-12.588-1.46-18.058l1.277-1.46z" />
<glyph unicode="&#xe905;" glyph-name="arrow-bottom" d="M938.476 739.208l58.856-62.772-485.332-519.602-485.332 519.602 58.561 62.772 426.771-456.494z" />
<glyph unicode="&#xe906;" glyph-name="arrow-down" d="M969.6 425.6l-60.8 60.8-352-348.8v752h-89.6v-752l-352 352-60.8-64 457.6-457.6z" />
<glyph unicode="&#xe907;" glyph-name="arrow-dropdown" d="M32 688l480-480 480 480z" />
<glyph unicode="&#xe908;" glyph-name="arrow-dropleft" d="M752 928l-480-480 480-480z" />
<glyph unicode="&#xe909;" glyph-name="arrow-dropright" d="M272 928l480-480-480-480z" />
<glyph unicode="&#xe90a;" glyph-name="arrow-dropup" d="M32 208l480 480 480-480z" />
<glyph unicode="&#xe90b;" glyph-name="arrow-back" d="M508.8-9.6l60.8 60.8-348.8 352h752v89.6h-752l352 352-64 60.8-457.6-457.6z" />
<glyph unicode="&#xe90c;" glyph-name="arrow-left" d="M799.991 869.785l-62.084 58.215-513.899-480 513.899-480 62.084 57.906-451.464 422.094z" />
<glyph unicode="&#xe90d;" glyph-name="arrow-right" d="M224.009 869.785l62.084 58.215 513.899-480-513.899-480-62.084 57.906 451.509 422.094z" />
<glyph unicode="&#xe90e;" glyph-name="arrow-top" d="M938.476 156.813l58.856 62.772-485.332 519.602-485.332-519.602 58.561-62.772 426.771 456.495z" />
<glyph unicode="&#xe90f;" glyph-name="arrow-up" d="M54.4 451.2l60.8-60.8 352 348.8v-752h89.6v752l352-352 60.8 64-457.6 457.6z" />
<glyph unicode="&#xe910;" glyph-name="arrow-forward" d="M515.2 905.6l-60.8-60.8 348.8-352h-752v-89.6h752l-352-352 64-60.8 457.6 457.6z" />
<glyph unicode="&#xe911;" glyph-name="fws" d="M438.006 132.338c-4.087 0-8.175 1.506-11.185 4.732l-32.911 32.695c-3.657 3.657-5.378 9.035-4.303 14.197l55.496 298.131c1.506 8.604 9.894 14.413 18.713 12.691 8.604-1.722 14.413-9.894 12.691-18.713l-53.99-289.743 26.888-26.888c6.238-6.238 6.238-16.348 0-22.585-3.226-3.012-7.313-4.516-11.4-4.516zM490.491 79.852c-4.087 0-8.175 1.506-11.185 4.732l-15.057 15.057c-6.238 6.238-6.238 16.348 0 22.585s16.348 6.238 22.585 0l15.057-15.057c6.238-6.238 6.238-16.348 0-22.585-3.226-3.226-7.313-4.732-11.4-4.732zM577.176 777.429l121.748 121.748c6.238 6.238 6.238 16.348 0 22.585s-16.348 6.238-22.585 0l-123.039-123.039h-82.6l-123.039 123.039c-6.238 6.238-16.348 6.238-22.585 0s-6.238-16.348 0-22.585l121.748-121.748-126.265-614.762c-0.86-5.163 0.645-10.541 4.303-14.197l175.738-175.738c3.012-3.012 7.098-4.732 11.185-4.732s8.388 1.722 11.185 4.732l175.738 175.738c3.657 3.657 5.378 9.035 4.303 14.197l-125.835 614.762zM512.001 6.718l-158.531 158.531 123.899 601.64h69.262l123.899-601.64-158.531-158.531z" />
<glyph unicode="&#xe912;" glyph-name="hqzc" d="M954.809 574.786l-40.505 40.879c-16.203 16.203-43.518 15.636-60.662-1.508l-52.936-52.374v86.473l-210.62 220.417v0.566h-441.774c-20.913 0-37.868-16.955-37.868-37.868v-766.749c0-20.913 16.955-37.868 37.868-37.868h614.526c21.286 0 37.868 17.521 37.868 39.749v296.715l152.218 150.712c17.333 17.144 18.085 44.459 1.882 60.851zM574.45 635.448c7.348-7.537 20.723-16.577 42.766-16.577l153.726 0.189v-86.846l-253.386-250.748-24.492-95.324c-2.26-8.856 0.189-17.896 6.407-24.114l0.189-0.189c6.407-6.407 15.636-8.667 24.492-6.218l92.875 25.811 153.915 152.407v-267.325c0-5.839-3.39-9.986-8.099-9.986h-614.526c-4.331 0-8.099 3.768-8.099 8.099v766.749c0 4.331 3.768 8.099 8.099 8.099h412.011l-0.189-129.991-0.189-37.679c0-13.754 5.088-26.752 14.506-36.359zM500.223 162.402v0 0 0zM523.774 186.516l20.534 79.688 242.081 239.443 57.645-57.645-242.459-240.010-77.806-21.475zM589.708 671.619l0.189 37.679 0.189 116.237 168.984-176.899-141.859-0.189c-20.345 0.189-27.504 12.624-27.504 23.173zM865.136 469.102l-57.645 57.645 67.069 66.312c5.463 5.463 14.128 6.218 18.653 1.508l40.317-40.69c2.26-2.26 3.201-5.463 3.015-9.044-0.378-3.579-1.882-7.158-4.709-9.797v0l-66.691-65.938zM231.015 509.415v-8.667c0-5.839 4.709-10.548 10.548-10.548h429.153c5.839 0 10.548 4.709 10.548 10.548v8.667c0 5.839-4.709 10.548-10.548 10.548h-429.153c-5.839 0-10.548-4.709-10.548-10.548zM535.452 391.107h-295.585c-4.898 0-9.044-3.958-9.044-9.044v-11.868c0-4.898 3.958-9.044 9.044-9.044h295.396c4.898 0 9.044 3.958 9.044 9.044v11.868c0 5.088-3.958 9.044-8.856 9.044zM445.214 262.246h-206.474c-4.147 0-7.726-3.39-7.726-7.726v-14.317c0-4.147 3.39-7.726 7.726-7.726h206.662c4.147 0 7.726 3.39 7.726 7.726v14.317c-0.189 4.147-3.579 7.726-7.911 7.726zM238.737 619.061h213.447c4.331 0 7.726 3.579 7.726 7.726v14.128c0 4.331-3.579 7.726-7.726 7.726h-213.447c-4.331 0-7.726-3.579-7.726-7.726v-14.128c0-4.147 3.39-7.726 7.726-7.726z" />
<glyph unicode="&#xe913;" glyph-name="hys" d="M905.37 793.4h-786.748c-14.126 0-25.689-11.558-25.689-25.689v-26.42c0-14.126 11.558-25.689 25.689-25.689h19.265c-0.733-2.753-1.1-5.505-1.1-8.442v-419.613c0-19.631 15.963-35.778 35.778-35.778h225.861l-97.976-156.874c-4.037-6.421-2.018-14.863 4.405-18.899v0c6.421-4.037 14.863-2.018 18.899 4.405l102.749 164.395c1.284 2.2 2.018 4.588 2.018 6.973h69.72v-110.086c0-6.973 5.689-12.478 12.478-12.478h2.384c6.973 0 12.478 5.689 12.478 12.478v110.086h69.72c0-2.384 0.733-4.768 2.018-6.973l102.749-164.395c4.037-6.421 12.478-8.442 18.899-4.405v0c6.421 4.037 8.442 12.478 4.405 18.899l-97.976 156.874h226.045c19.631 0 35.778 15.963 35.778 35.778v419.796c0 2.937-0.368 5.689-1.1 8.442h19.265c14.126 0 25.689 11.558 25.689 25.689v26.42c-0.184 14.126-11.558 25.504-25.689 25.504zM859.685 287.737c0-4.405-3.853-8.258-8.258-8.258h-678.863c-4.405 0-8.258 3.853-8.258 8.258v419.613c0 4.405 3.853 8.258 8.258 8.258h678.863c4.405 0 8.258-3.853 8.258-8.258v-419.613zM903.352 743.311h-782.711v22.568h782.895v-22.568zM578.966 599.464h-334.847c-4.037 0-7.338-3.303-7.338-7.338v-12.842c0-4.037 3.303-7.338 7.338-7.338h334.847c4.037 0 7.338 3.303 7.338 7.338v12.842c0 4.037-3.303 7.338-7.338 7.338zM428.699 481.12h-186.413c-3.121 0-5.505-2.568-5.505-5.505v-16.514c0-3.121 2.568-5.505 5.505-5.505h186.231c3.121 0 5.505 2.568 5.505 5.505v16.514c0.184 3.121-2.384 5.505-5.321 5.505z" />
<glyph unicode="&#xe914;" glyph-name="ie" d="M638.699 611.358c0 0-119.386-106.968-127.6-159.649-4.208-25.438 46.672-72.114 63.9-127.6 18.63-60.494 10.215-138.016 0-159.649 0 0 111.975 49.076 191.701 191.701-0.201 0-79.324 157.848-64.101 191.5 22.235 48.678-62.297 62.096-63.9 63.699zM475.446 551.464c24.236-2.403 43.47 19.832 37.458 43.47-16.826 66.906-97.753 144.225-97.753 144.225-136.413-78.922-191.701-223.75-191.701-223.75 22.034 52.483 179.882 43.269 251.993 36.055zM511.902 896.002c-246.986 0-447.701-200.914-447.701-447.901 0-91.545 27.644-179.681 79.726-254.999 6.209-8.612 17.027-8.414 24.638-4.408 8.214 6.41 8.013 17.027 4.007 24.437-49.076 69.707-74.116 148.834-74.116 235.368 0 228.158 185.488 413.647 413.647 413.647s413.647-185.488 413.647-413.647-185.488-414.048-413.647-414.048c-85.332 0-167.062 25.84-235.97 74.518-3.006 2.202-6.41 3.206-9.617 3.206-5.409 0-10.818-2.805-14.624-8.214-5.61-7.812-3.605-18.028 5.007-24.236 75.116-52.082 163.254-79.726 254.798-79.726 246.986 0 447.901 200.914 447.901 447.901 0.201 247.187-200.715 448.099-447.701 448.099z" />
<glyph unicode="&#xe915;" glyph-name="jt" d="M526.107 17.258c0-8.592-6.966-15.558-15.558-15.558s-15.558 6.966-15.558 15.558c0 8.592 6.966 15.558 15.558 15.558s15.558-6.966 15.558-15.558zM526.107 86.749c0-8.592-6.966-15.558-15.558-15.558s-15.558 6.966-15.558 15.558c0 8.592 6.966 15.558 15.558 15.558s15.558-6.966 15.558-15.558zM879.579 539.376c0 0.207 0 0.207 0 0l-345.382 345.589c-6.016 6.016-14.106 9.335-22.818 9.335-8.505 0-16.595-3.319-22.818-9.335l-343.723-343.723c-2.904-2.904-4.564-6.638-4.564-10.994 0-8.505 7.053-15.558 15.558-15.558 4.771 0 9.127 2.074 11.824 5.601l327.335 327.335v-679.355c0-8.505 6.845-15.35 15.35-15.35h0.415c8.505 0 15.35 6.845 15.35 15.35v679.977c0 0.415 0 0.622 0 1.037l330.239-330.447c2.904-3.319 7.053-5.601 11.824-5.601 8.505 0 15.558 7.053 15.558 15.558 0 4.149-1.659 7.883-4.149 10.579z" />
<glyph unicode="&#xe916;" glyph-name="location" d="M511.893 927.999c-215.476 0-390.897-175.208-390.897-390.468 0-61.902 20.563-130.013 60.829-202.839 32.128-58.045 76.895-119.089 133.226-181.847 95.529-106.666 192.344-181.42 193.414-182.061l3.642-2.784 3.428 2.784c0.856 0.643 97.67 79.679 193.414 188.273 56.117 63.828 100.883 125.301 133.226 182.704 40.268 71.968 60.829 138.153 60.829 196.198-0.214 215.047-175.422 390.041-391.111 390.041zM511.893 895.656c194.699 0 353.416-158.501 353.416-353.416s-158.501-353.416-353.416-353.416-353.2 158.716-353.2 353.416 158.501 353.416 353.2 353.416z" />
<glyph unicode="&#xe917;" glyph-name="lw" d="M890.312 665.957h-222.425c16.567 20.844 26.613 47.281 26.613 75.939 0 67.379-54.718 122.104-122.104 122.104-23.264 0-44.861-6.513-63.285-17.872-18.423 11.35-40.209 17.872-63.285 17.872-67.379 0-122.104-54.718-122.104-122.104 0-28.665 10.049-55.096 26.613-75.939h-216.843c-19.916 0-35.919-16.191-35.919-35.919v-132.527c0-19.916 16.191-35.919 35.919-35.919h19.175v-407.437c0-12.285 9.867-22.149 22.149-22.149h676.216c12.285 0 22.149 9.867 22.149 22.149v407.249h17.308c19.916 0 35.919 16.191 35.919 35.919v132.527c-0.188 19.916-16.379 36.107-36.107 36.107zM667.144 741.896c0-31.083-15.075-58.632-38.339-75.939h-104.792l0.741 157.835c13.958 8.19 30.337 12.843 47.645 12.843 52.299 0 94.739-42.441 94.739-94.739zM351.093 741.896c0 52.299 42.441 94.739 94.739 94.739 18.799 0 36.483-5.58 51.182-15.075l-0.741-155.603h-106.842c-23.264 17.308-38.339 44.861-38.339 75.939zM125.503 497.323v132.527c0 4.277 3.725 8.002 8.002 8.002h362.581l-0.741-148.529h-361.837c-4.277 0-8.002 3.725-8.002 8.002zM180.598 460.467h314.743l-1.859-400.552h-312.887v400.552zM845.087 59.913h-323.867l1.859 400.552h322.004v-400.552zM898.319 497.323c0-4.277-3.725-8.002-8.002-8.002h-367.053l0.741 148.529h366.301c4.277 0 8.002-3.725 8.002-8.002v-132.527z" />
<glyph unicode="&#xe918;" glyph-name="mail" d="M936.375 760.827h-848.751c-22.122 0-40.111-17.988-40.111-40.111v-545.433c0-22.122 17.988-40.111 40.111-40.111h848.751c22.122 0 40.111 17.988 40.111 40.111v545.433c0 22.122-17.988 40.111-40.111 40.111zM906.603 729.399l-396.36-340.328-393.88 340.328h790.236zM78.528 189.34v531.373c0 0.206 0 0.206 0 0.414 0.62-0.62 1.034-1.241 1.653-1.653l300.422-259.483-302.077-270.648zM99.204 166.186l304.971 273.337 90.768-78.362c4.342-3.722 9.924-5.789 15.3-5.789s10.751 1.861 15.093 5.583l94.489 81.257 308.072-276.232h-828.694zM945.474 192.236l-301.869 270.442 298.976 256.796c1.034 0.828 1.861 1.653 2.689 2.689 0-0.414 0.206-0.828 0.206-1.241v-528.686z" />
<glyph unicode="&#xe919;" glyph-name="phone" d="M742.059 329.757l-2.962 1.85c-5.182 3.332-9.808 6.476-14.251 9.251-1.481 1.112-3.332 2.219-5.182 3.701l-1.112 0.739c-14.989 11.104-42.751 32.016-70.695 19.064-28.316-13.139-41.086-43.123-52.189-69.77-9.808-23.134-18.877-44.786-35.717-53.487l-0.369-0.187h-0.556c-9.439 0.369-32.203 14.434-67.551 42.011-3.518 2.775-6.663 5.182-8.7 6.663-67.182 49.412-155.642 127.882-195.433 221.342l-0.369 0.739 0.369 0.739c5.182 12.214 31.647 26.652 52.93 38.31 29.241 15.915 59.224 32.572 71.807 56.075l1.665 3.332v3.701c-0.556 29.428-14.251 48.118-25.353 63.107l-0.369 0.369c-1.85 2.406-3.518 4.813-5.369 7.401-4.444 6.294-9.439 14.064-14.807 22.396l-0.556 0.739c-31.46 48.487-79.027 121.962-140.283 122.144h-4.070l-3.518-2.037c-68.845-41.086-111.412-82.91-129.92-128.069-36.273-88.465 33.128-204.503 59.224-247.994 88.092-147.129 295.925-379.577 507.277-417.331 11.476-2.037 22.578-3.145 33.128-3.145 75.508 0 116.963 52.189 147.315 90.128l3.888 4.995c2.219 2.775 4.813 5.369 7.588 8.326l0.556 0.739c14.434 15.176 38.679 40.529 24.059 77.358-17.027 43.123-82.54 85.689-130.476 116.781zM827.746 155.42c-3.701-3.888-7.032-7.401-9.808-10.733l-4.070-4.995c-29.797-37.385-62.925-79.209-125.107-79.209-8.7 0-17.952 0.739-27.759 2.591-201.727 35.904-402.155 261.134-487.475 403.636-24.059 40.16-88.092 147.129-57.372 222.267 15.733 38.123 53.116 74.77 114.187 111.781l0.556 0.369h0.556c43.861-4.070 84.762-66.995 111.781-108.636 6.294-9.626 11.476-17.583 15.915-24.059 1.85-2.775 3.701-5.369 6.107-8.326 9.626-13.139 17.952-24.428 19.433-42.011v-0.739l-0.369-0.556c-10.364-14.62-35.717-28.503-57.925-40.716-34.053-18.69-66.257-36.273-68.845-64.406l-0.369-3.518 1.294-3.332c41.455-101.788 135.471-185.811 207.092-238.369 1.85-1.481 4.444-3.332 7.588-5.921l0.556-0.369c44.23-34.61 74.027-53.299 94.754-47.007l1.665 0.556c28.316 12.583 40.899 42.751 52.189 69.401 10.178 23.873 19.616 46.454 37.754 54.968 12.401 5.738 29.797-7.219 41.273-15.915 2.962-2.219 5.369-4.070 7.588-5.551 4.813-3.145 10.178-6.663 17.396-11.289 39.604-25.725 105.861-68.476 119.556-103.267l0.187-0.369c6.848-17.765-2.775-29.982-18.321-46.267zM763.158 526.115v-0.925l28.872 0.187v0.925c-2.037 105.674-89.759 191.546-195.249 191.546-9.626 0-19.802-0.925-31.278-2.775l-0.739-0.187v-0.739c-0.187-9.251-0.556-18.321-0.925-27.577v-1.112l1.112 0.187c10.733 2.037 21.283 3.145 31.834 3.145 89.759 0.369 164.342-72.733 166.379-162.677zM877.901 527.040v-0.925l28.872 0.187v0.925c-2.591 168.412-141.578 305.364-309.992 305.364-9.251 0-18.508-0.369-28.503-1.294h-0.739l-0.187-9.808c-0.187-6.107-0.187-12.030-0.369-18.139v-0.925l0.925 0.187c9.439 0.925 19.246 1.481 28.685 1.481 152.684-0.187 278.899-124.369 281.305-277.048z" />
<glyph unicode="&#xe91a;" glyph-name="trz" d="M919.631 45.011h-769.032c-17.601 0-31.72 14.119-31.72 31.72v755.493c0 7.929-6.575 14.508-14.508 14.508s-14.508-6.575-14.508-14.508v-755.493c0-33.463 27.272-60.735 60.735-60.735h769.032c7.929 0 14.508 6.575 14.508 14.508s-6.575 14.508-14.508 14.508zM207.268 446.162c0-1.16 0.966-1.932 2.127-1.932 11.993 0.772 73.306 7.351 170.208 54.35 61.701 29.982 125.335 70.213 189.163 119.921 73.886 57.443 148.353 127.85 221.658 209.085 1.16 1.355 3.481 0.581 3.481-1.355v-75.238c0-7.929 6.575-14.508 14.508-14.508s14.508 6.575 14.508 14.508v94.776c0 18.955-15.28 34.235-34.235 34.235h-94.001c-7.929 0-14.508-6.575-14.508-14.508v0c0-7.929 6.575-14.508 14.508-14.508h73.306c1.742 0 2.709-1.932 1.549-3.287-96.323-106.961-239.261-243.125-400.183-321.85-78.719-38.489-138.488-51.063-161.119-52.61-1.16 0-1.932-0.966-1.742-2.127l0.581-12.57 0.194-12.38zM232.994 109.613h55.511c15.862 0 28.627 12.959 28.627 28.627v88.197c0 15.862-12.959 28.627-28.627 28.627h-55.511c-15.862 0-28.627-12.959-28.627-28.627v-88.197c-0.194-15.668 12.765-28.627 28.627-28.627zM233.185 226.245h54.932v-87.619h-54.932v87.619zM426.991 391.618c-19.535 0-35.395-15.862-35.395-35.395v-211.211c0-19.535 15.862-35.395 35.395-35.395h41.972c19.535 0 35.395 15.862 35.395 35.395v211.211c0 19.535-15.862 35.395-35.395 35.395h-41.972zM475.347 356.222v-211.211c0-3.481-2.903-6.385-6.385-6.385h-41.972c-3.481 0-6.385 2.903-6.385 6.385v211.211c0 3.481 2.903 6.385 6.385 6.385h41.972c3.481 0 6.385-2.903 6.385-6.385zM619.057 522.949c-22.242 0-40.231-17.989-40.231-40.231v-332.682c0-22.242 17.989-40.231 40.231-40.231h32.303c22.242 0 40.231 17.989 40.231 40.231v332.682c0 22.242-17.989 40.231-40.231 40.231h-32.303zM662.77 482.718v-332.682c0-6.191-5.030-11.219-11.219-11.219h-32.303c-6.191 0-11.219 5.030-11.219 11.219v332.682c0 6.191 5.030 11.219 11.219 11.219h32.303c6.191 0 11.219-5.030 11.219-11.219zM766.057 610.18v-456.274c0-24.563 19.921-44.294 44.294-44.294h24.179c24.563 0 44.294 19.921 44.294 44.294v456.274c0 24.563-19.921 44.294-44.294 44.294h-24.179c-24.369 0.194-44.294-19.727-44.294-44.294zM850.001 610.18v-456.274c0-8.511-6.963-15.28-15.28-15.28h-24.179c-8.511 0-15.28 6.963-15.28 15.28v456.274c0 8.511 6.963 15.28 15.28 15.28h24.179c8.317 0.194 15.28-6.768 15.28-15.28z" />
<glyph unicode="&#xe91b;" glyph-name="yjfk" d="M707.103 799.998h-492.078c-16.819 0-30.657-13.675-30.657-30.657v-642.687c0-16.819 13.675-30.657 30.657-30.657h593.95c16.819 0 30.657 13.675 30.657 30.657v540.817l-132.532 132.532zM791.523 681.458h-63.514c-4.873 0-8.806 3.927-8.806 8.806v63.514l72.32-72.32zM454.772 775.632v-342.728c0-2.201-1.101-4.244-2.985-5.662 0 0 0 0 0 0l-48.739 50.306c-4.086 4.244-9.589 6.604-15.565 6.604 0 0 0 0-0.159 0-5.819 0-11.319-2.36-15.41-6.446l-48.895-49.522c-0.627-0.627-1.573-0.627-2.043-0.159-0.783 0.783-2.043 2.36-2.043 4.873v342.728h135.834zM816.207 126.808c0-3.927-3.302-7.229-7.229-7.229h-593.95c-3.927 0-7.229 3.302-7.229 7.229v642.687c0 3.927 3.302 7.229 7.229 7.229h80.491v-343.984c0-8.173 3.302-15.876 9.119-21.538 9.748-9.43 25.465-9.273 35.057 0.473l47.638 48.263 47.638-49.049c4.562-4.719 10.69-7.229 16.977-7.229 4.403 0 8.806 1.259 12.733 3.773 8.488 5.662 13.675 15.093 13.675 25.311v343.829h217.584v-86.312c0-17.765 14.465-32.228 32.228-32.228h86.78c0.473 0 0.783 0 1.259 0.159l0.317-0.317v-531.069z" />
<glyph unicode="&#xe91c;" glyph-name="right" d="M517.117 815.805c-8.475 0-15.368-6.89-15.368-15.368 0-4.726 2.172-8.665 5.513-11.626l327.024-326.824c-0.397 0-0.586 0-0.981 0h-673.151c-8.475 0-15.168-6.703-15.168-15.168v-0.397c0-8.475 6.703-15.168 15.168-15.168h672.566l-323.873-324.264c-3.55-2.564-5.513-6.89-5.513-11.626 0-8.475 6.89-15.368 15.368-15.368 4.335 0 7.877 1.575 10.837 4.531v0l340.226 340.226c5.91 6.306 9.257 14.179 9.257 22.655 0 8.665-3.346 16.747-9.257 22.655l-342.192 341.795c0.195 0 0.195 0 0 0-2.564 2.564-6.306 4.134-10.441 3.944z" />
<glyph unicode="&#xe91d;" glyph-name="up" d="M144.572 453.116c0-8.467 6.886-15.348 15.348-15.348 4.725 0 8.657 2.165 11.606 5.511l326.486 326.685c0-0.397 0-0.586 0-0.983v-672.46c0-8.467 6.691-15.158 15.158-15.158h0.397c8.467 0 15.158 6.691 15.158 15.158v671.873l323.935-323.537c2.555-3.54 6.886-5.511 11.606-5.511 8.467 0 15.348 6.886 15.348 15.348 0 4.328-1.57 7.871-4.526 10.827v0l-339.869 339.869c-6.294 5.901-14.173 9.246-22.628 9.246-8.657 0-16.728-3.346-22.628-9.246l-341.442-341.834c0 0.195 0 0.195 0 0-2.555-2.555-4.136-6.294-3.931-10.434z" />
<glyph unicode="&#xe91e;" glyph-name="down" d="M148.53 432.447c0-0.195 0-0.195 0 0l341.437-341.832c5.901-5.901 13.97-9.246 22.628-9.246 8.465 0 16.332 3.346 22.628 9.246l339.865 339.865c2.95 2.95 4.526 6.496 4.526 10.827 0 8.465-6.886 15.349-15.349 15.349-4.724 0-9.053-1.967-11.608-5.511l-323.928-323.533v671.862c0 8.465-6.691 15.156-15.156 15.156h-0.395c-8.465 0-15.156-6.691-15.156-15.156v-672.451c0-0.395 0-0.588 0-0.983l-326.483 326.679c-2.95 3.346-6.886 5.511-11.608 5.511-8.465 0-15.349-6.886-15.349-15.349-0.195-4.136 1.379-7.871 3.934-10.432z" />
<glyph unicode="&#xe91f;" glyph-name="download" d="M489.628 110.907c5.993-5.993 14.185-9.386 22.972-9.386 8.59 0 16.579 3.394 22.972 9.386l344.987 344.787c2.996 2.996 4.593 6.593 4.593 10.986 0 8.59-6.993 15.579-15.579 15.579-4.793 0-9.187-2-11.786-5.593l-328.808-328.208v681.981c0 8.59-6.793 15.379-15.379 15.379h-0.4c-8.59 0-15.379-6.793-15.379-15.379v-682.581c0-0.4 0-0.6 0-1l-331.401 331.601c-2.996 3.394-6.993 5.593-11.786 5.593-8.59 0-15.579-6.993-15.579-15.579-0.2-4.193 1.4-7.993 3.993-10.586l346.587-346.985zM896.538 80.142h-769.077c-8.193 0-14.98-6.793-14.98-14.98s6.793-14.98 14.98-14.98h769.077c8.193 0 14.98 6.793 14.98 14.98s-6.793 14.98-14.98 14.98z" />
<glyph unicode="&#xe920;" glyph-name="close" d="M904 896q24.064 0 40.032-15.968t15.968-40.032q0-23.616-16.192-39.808l-352.608-352.192 352.608-352.192q16.192-16.192 16.192-39.808 0-24.064-15.968-40.032t-40.032-15.968q-23.616 0-39.808 16.192l-352.192 352.608-352.192-352.608q-16.192-16.192-39.808-16.192-24.064 0-40.032 15.968t-15.968 40.032q0 23.616 16.192 39.808l352.608 352.192-352.608 352.192q-16.192 16.192-16.192 39.808 0 24.064 15.968 40.032t40.032 15.968q23.616 0 39.808-16.192l352.192-352.608 352.192 352.608q16.192 16.192 39.808 16.192z" />
<glyph unicode="&#xe921;" glyph-name="back-b" d="M944 503.189h-659.418l302.019 302.21-74.601 74.601-432-432 432-432 77.835 78.026-305.254 298.784h659.418v110.379z" />
<glyph unicode="&#xe922;" glyph-name="menu-b" d="M88.619 753.765v-94.166h846.764v94.166h-846.764zM794.315 495.083h-705.697v-94.166h705.697v94.166zM88.619 142.234h846.764v94.166h-846.764v-94.166z" />
<glyph unicode="&#xe923;" glyph-name="ur-b" d="M512.2 0c-119.798 0-232.199 46.601-316.801 131.199-84.798 84.602-131.399 197.199-131.399 316.801 0 119.798 46.601 232.199 131.199 316.801s197.199 131.199 316.801 131.199c119.798 0 232.199-46.601 316.801-131.199s131.199-197.199 131.199-316.801c0-119.798-46.601-232.199-131.199-316.801-84.401-84.602-196.999-131.199-316.601-131.199zM512.2 850.803c-107.599 0-208.801-41.799-284.802-118.001-76.001-76.001-118.001-177.198-118.001-284.802s41.799-208.801 118.001-284.802c76.001-76.001 177.198-118.001 284.802-118.001s208.6 41.799 284.802 118.001c76.001 76.001 118.001 177.198 118.001 284.802s-41.799 208.801-118.001 284.802c-76.202 76.001-177.399 118.001-284.802 118.001zM654.8 459.802c0.201 0 0.201 0 0 0v0c0.201 0 0 0 0 0zM685.002 418.002c51.002 13.398 88.601 60.2 88.601 115.201 0 65.599-52.598 119-118.202 119 0 0 0.401 0 0.401 0v0.798h-157.999v-262.001c0 0 0-0.401 0-0.798 0-55.599-45.402-100.8-101.001-100.8s-101.001 45.001-101.001 100.599c0 0.401 0 0.999 0 0.999h0.201v262.001h-45.999v-262.001h0.602c0 0 0-0.201 0-0.401 0-80.799 65.599-146.398 146.398-146.398s146.398 65.198 146.398 146.001c0 0.401 0 0.798 0 0.798h0.401v213.999h112v1.801c42-0.602 72.8-33.399 72.8-73.598 0-40.6-32.802-73.402-72.8-73.598v-0.798h-20.001v-44.599l87.799-171.402h50.4l-88.998 175.201z" />
<glyph unicode="&#xe924;" glyph-name="uwu-b" d="M897.212 694.375h-210.309c12.542 20.643 19.292 44.569 19.292 68.881 0 73.127-59.62 132.746-132.746 132.746-22.575 0-44.762-5.79-64.442-16.785-19.68 10.999-41.675 16.785-64.442 16.785-73.127 0-132.746-59.62-132.746-132.746 0-24.119 6.754-48.045 19.292-68.881h-204.519c-24.695 0-44.762-20.261-44.762-45.15v-134.868c0-24.889 20.067-44.956 44.956-44.956h10.999v-300.797c0-75.441 61.165-136.606 136.606-136.606h479.851c73.897 0 133.904 60.007 133.904 133.904v303.306h9.068c24.889 0 44.956 20.067 44.956 44.956v135.061c0 24.889-20.261 45.15-44.956 45.15zM842.609 468.245v-287.871c0-56.919-46.113-102.838-102.838-102.838h-209.728l1.738 390.903h310.833zM896.826 648.838v-134.287h-364.857l0.581 134.287h364.276zM532.739 694.375l0.77 147.218c12.35 6.366 26.046 9.649 40.134 9.649 48.427 0 87.98-39.553 87.98-87.98 0-27.014-12.156-51.903-33.381-68.881h-95.508zM488.364 839.468l-0.77-145.286h-97.435c-21.224 16.785-33.381 41.867-33.381 68.881 0 48.427 39.553 87.98 87.98 87.98 15.434 0.194 30.292-3.858 43.605-11.575zM487.401 648.838l-0.581-134.287h-359.647v134.287h360.224zM486.626 468.245l-1.738-390.903h-196.223c-58.269 0-105.539 47.27-105.539 105.539v285.363h303.498z" />
<glyph unicode="&#xe925;" glyph-name="yjfk-b" d="M750.168 880.002h-596.241c-24.481 0-44.531-20.048-44.531-44.725v-774.555c0-24.674 20.048-44.725 44.725-44.725h715.759c24.674 0 44.725 20.048 44.725 44.725v655.036l-164.434 164.241zM256.675 398.266c14.842-14.267 38.554-14.073 53.014 0.77l51.854 52.627 51.854-53.396c6.94-7.133 16.191-10.988 26.023-10.988 6.94 0 13.686 1.93 19.664 5.784 12.531 8.289 19.857 22.169 19.857 37.011v406.364h246.746v-96.385c0-25.637 20.82-46.456 46.456-46.456h98.699v-632.483c0-0.387-0.58-0.962-0.962-0.962h-715.951c-0.387 0-0.962 0.58-0.962 0.962v774.362c0 0.387 0.58 0.962 0.962 0.962h89.251v-406.746c0.193-11.95 4.82-23.131 13.493-31.421zM435.179 438.361l-49.155 50.697c-6.359 6.746-15.036 10.409-24.481 10.409-9.059 0-17.541-3.47-24.098-10.025l-50.697-51.278v397.107h148.433v-396.915zM769.253 740.049v57.831l60.723-60.916h-57.831c-1.543 0.193-2.892 1.543-2.892 3.086z" />
<glyph unicode="&#xe926;" glyph-name="down-b" d="M894.443 758.21c-27.95 27.95-65.288 43.386-104.919 43.386h-123.065v-44.011h123.065c57.57 0 104.294-46.724 104.294-104.294v-504.988c0-57.57-46.724-104.294-104.294-104.294h-555.256c-57.57 0-104.294 46.724-104.294 104.294v505.196c0 57.57 46.724 104.294 104.294 104.294h123.065v43.804h-123.065c-81.766 0-148.305-66.54-148.305-148.305v-504.988c0-81.766 66.54-148.305 148.305-148.305h555.465c81.766 0 148.305 66.54 148.305 148.305v504.988c0 39.63-15.436 76.969-43.595 104.919v0zM311.026 473.909c-6.048 0-11.68-2.295-15.851-6.675-4.171-4.171-6.675-10.013-6.675-15.851 0-6.048 2.295-11.68 6.675-15.851l200.869-200.869c4.171-4.38 9.804-6.884 16.061-6.884 6.048 0 11.68 2.504 15.851 6.675l201.285 201.285c4.171 4.171 6.675 10.013 6.675 15.851s-2.295 11.68-6.675 15.851c-8.761 8.761-23.154 8.761-32.121 0l-163.113-162.907v601.355c0 12.099-10.013 22.111-22.111 22.111s-22.111-10.013-22.111-22.111v-601.77l-162.907 162.907c-3.962 4.38-9.595 6.884-15.851 6.884z" />
<glyph unicode="&#xe927;" glyph-name="fuwushang-b" d="M975.199 366.113v1.242c0 0.415 0 1.034 0 1.446 0 18.405-1.034 37.221-3.308 55.626-12.406 103.6-58.107 197.69-132.345 271.928-81.268 81.268-189.213 129.242-303.774 135.034l-2.481 0.207-0.619 2.275c0.415 1.446-0.619 3.103-0.619 4.549v44.666c0 12.614-10.133 22.747-22.747 22.747s-22.747-10.133-22.747-22.747v-44.666c0-1.654 1.446-3.103 1.654-4.757l1.034-2.275-2.069-0.207c-114.356-5.996-221.678-53.765-302.947-135.034-74.239-74.239-119.938-168.325-132.345-271.928-2.275-18.405-3.308-37.221-3.308-55.626 0-1.446 0-2.688 0-4.135v-1.446c0-0.207 0-0.415 0-0.619v-0.827l0.207-0.827c1.654-15.094 13.648-26.677 28.743-27.503 16.544-1.034 30.811 11.167 32.672 27.711v0.619l0.415 0.415c21.712 26.054 53.765 40.944 87.472 40.944 35.775 0 69.894-17.163 91.401-45.908l0.207-0.415v-0.415c3.515-13.648 15.924-23.162 29.984-23.162 10.752 0 20.678 5.584 26.469 14.89l0.415 0.619c0.619 1.242 1.242 2.275 1.654 3.308l0.415 0.619c35.153 40.736 83.13 66.586 136.275 72.582l1.446 0.207v-346.994c-2.069-23.988-19.439-42.805-43.632-42.805-23.781 0-43.013 18.817-44.047 42.805-0.619 11.994-10.34 21.3-22.539 21.3-11.994 0-21.92-9.514-22.539-21.505v-1.034c0-0.619 0-1.034 0.207-1.654 0-0.619 0.207-1.242 0.207-1.654 3.308-46.735 42.598-83.542 89.748-83.542 46.942 0 85.403 36.602 88.92 83.542l-0.619 1.861v349.474l3.103-0.207c50.869-6.203 98.224-30.811 132.757-69.067l0.415-0.207 0.207-0.415c5.584-13.441 18.612-21.92 33.087-21.92 16.544 0 30.811 11.374 34.741 27.503l0.207 0.415 0.415 0.415c21.92 26.677 54.384 41.978 88.92 41.978 35.568 0 68.655-16.129 90.78-44.459l0.415-0.415v-0.415c2.688-15.717 17.163-26.469 33.087-24.194 12.821 1.861 22.954 11.579 25.023 24.4l0.207 1.034c0 2.275 0 4.342-0.207 6.618v0zM297.551 407.057l-0.207-3.93-3.308 2.481c-27.915 21.093-61.002 32.26-95.951 32.26-35.983 0-69.689-11.787-98.019-33.914l-3.93-3.103 0.619 4.964c1.654 15.094 4.342 40.532 7.652 55.212 33.707 148.062 161.71 282.888 307.703 325.486l6.203 1.861-4.135-5.169c-15.924-19.851-46.942-60.591-59.556-88.506-33.914-74.65-54.18-183.422-57.073-287.645zM674.733 402.715c-46.32 38.256-104.842 59.349-164.81 59.349-59.349 0-117.456-20.678-163.571-58.314l-3.515-2.896 0.207 4.549c2.481 98.431 21.3 201.205 52.938 270.479 30.811 67.413 73.616 119.109 112.906 120.351v0l3.515 0.207c0.619 0 1.242 0 1.861 0h2.069c39.91-1.242 78.165-52.938 108.772-120.351 31.638-69.482 50.458-172.67 52.938-271.513l0.207-4.549-3.515 2.688zM923.5 405.196c-28.33 21.92-62.037 33.499-97.812 33.499-36.187 0-70.309-11.787-98.639-34.121l-3.308-2.481-0.207 4.135c-2.688 104.635-24.4 212.992-57.073 288.472-17.784 41.151-44.252 69.482-60.383 89.333l-4.135 4.964 6.203-1.654c71.962-20.266 154.058-76.304 206.169-130.897 52.111-54.799 88.506-122.42 105.049-195.623 3.308-14.267 5.791-39.083 7.445-53.765l0.619-4.964-3.93 3.103z" />
<glyph unicode="&#xe928;" glyph-name="tel" d="M817.706 586.166h-9.89v9.89c0 130.798-114.853 237.173-255.947 237.173h-79.731c-141.093 0-255.947-106.375-255.947-237.173v-9.89h-9.89c-82.556 0-149.571-78.72-149.571-175.409s67.015-175.409 149.571-175.409c6.66 0 13.323 0.606 19.78 1.615l7.266 1.212 3.027-6.66c29.673-64.591 88.207-113.438 160.471-133.827l5.045-1.412 1.615-5.045c5.248-16.753 22.404-28.461 41.581-28.461h79.731c23.819 0 43.196 17.762 43.196 39.563s-19.377 39.563-43.196 39.563h-79.731c-12.111 0-23.213-4.442-31.488-12.514l-4.239-4.036-5.451 1.615c-92.446 27.652-154.617 106.981-154.617 197.611v271.286c0 114.449 99.714 207.503 222.438 207.503h79.731c122.725 0 222.438-93.052 222.438-207.503v-360.707h43.196c82.556 0 149.571 78.72 149.571 175.409 0.606 96.888-66.609 175.609-148.965 175.609zM933.771 410.558c0-80.335-52.077-145.735-116.063-145.735h-9.89v291.471h9.89c63.985 0 116.063-65.4 116.063-145.735zM206.506 265.022c-63.985 0-116.063 65.4-116.063 145.735s52.077 145.735 116.063 145.735h9.89v-232.128c0-15.744 1.615-31.691 5.045-47.232l2.421-11.304-11.505-0.606c-2.018-0.203-3.836-0.203-5.854-0.203z" />
<glyph unicode="&#xe929;" glyph-name="erweima" d="M356.118 864.002h-128.461c-69.303 0-125.646-56.343-125.646-125.646v-139.92c0-69.303 56.343-125.646 125.646-125.646h128.651c33.807 0 65.357 13.145 88.833 36.999 23.665 23.854 36.621 55.214 36.621 88.648v139.92c0 69.303-56.343 125.646-125.646 125.646zM446.641 744.365v-151.937c0-46.763-38.128-84.89-84.89-84.89h-139.543c-46.763 0-84.89 38.128-84.89 84.89v151.937c0 46.763 38.128 84.89 84.89 84.89h139.543c46.763 0 84.89-37.939 84.89-84.89zM356.118 423.208h-128.461c-69.303 0-125.646-56.343-125.646-125.646v-139.92c0-69.303 56.343-125.646 125.646-125.646h128.651c33.807 0 65.357 13.145 88.833 36.999 23.665 23.854 36.621 55.214 36.621 88.648v139.92c0 69.303-56.343 125.646-125.646 125.646zM446.641 303.571v-151.937c0-46.763-38.128-84.89-84.89-84.89h-139.543c-46.763 0-84.89 38.128-84.89 84.89v151.937c0 46.763 38.128 84.89 84.89 84.89h139.543c46.763 0 84.89-38.128 84.89-84.89zM667.883 472.79h128.651c33.618 0 65.169 13.145 88.833 36.81 23.665 23.854 36.621 55.214 36.621 88.648v139.92c0 69.303-56.343 125.646-125.646 125.646h-128.461c-69.303 0-125.646-56.343-125.646-125.646v-139.92c0-69.116 56.343-125.459 125.646-125.459zM577.543 592.427v151.937c0 46.763 38.128 84.89 84.89 84.89h139.543c46.763 0 84.89-38.128 84.89-84.89v-151.937c0-46.763-38.128-84.89-84.89-84.89h-139.543c-46.763 0-84.89 38.128-84.89 84.89zM580.924 397.102v-343.693c0-1.501-1.313-2.819-2.819-2.819h-29.676c-1.501 0-2.819 1.313-2.819 2.819v343.693c0 1.501 1.313 2.819 2.819 2.819h29.676c1.501 0.189 2.819-1.129 2.819-2.819zM711.454 137.549v179.734c0 1.501 1.313 2.819 2.819 2.819h29.676c1.501 0 2.819-1.313 2.819-2.819v-179.734c0-1.501-1.313-2.819-2.819-2.819h-29.676c-1.501-0.189-2.819 1.129-2.819 2.819zM913.163 397.102v-343.693c0-1.501-1.313-2.819-2.819-2.819h-29.676c-1.501 0-2.819 1.313-2.819 2.819v343.693c0 1.501 1.313 2.819 2.819 2.819h29.676c1.501 0.189 2.819-1.129 2.819-2.819z" />
<glyph unicode="&#xe92a;" glyph-name="success-circle" d="M512 928c-265.056 0-480-214.944-480-480s214.944-480 480-480c265.056 0 480 214.944 480 480s-214.944 480-480 480zM758.208 608.48l-298.080-382.496c-2.368-2.368-6.208-7.52-10.944-7.52-4.928 0-8.16 3.424-10.944 6.208s-169.056 162.656-169.056 162.656l-3.232 3.232c-1.28 1.92-2.368 4.288-2.368 6.848s1.056 4.928 2.368 6.848c0.864 0.864 1.504 1.504 2.368 2.56 16.48 17.344 49.92 52.48 52.064 54.656 2.784 2.784 5.152 6.432 10.272 6.432 5.344 0 8.768-4.48 11.36-7.072s96.448-92.768 96.448-92.768l238.496 306.432c2.144 1.728 4.704 3.008 7.52 3.008s5.344-1.056 7.52-2.784l65.6-51.648c1.728-2.176 2.784-4.704 2.784-7.52 0.192-2.784-0.864-5.152-2.144-7.072z" />
<glyph unicode="&#xe92b;" glyph-name="light2" d="M793.849 358.17c29.207 0 53.235 23.821 53.235 53.235v26.307c0 10.564-3.107 20.714-8.907 29.414l-132.984 199.268c-9.943 14.914-26.307 23.614-44.121 23.614h-114.963v191.19c0 8.493-7.043 15.535-15.535 15.535s-15.535-7.043-15.535-15.535v-191.19h-114.755c-17.814 0-34.385-8.907-44.121-23.614l-132.984-199.268c-5.8-8.7-8.907-18.85-8.907-29.414v-26.307c0-29.207 23.821-53.235 53.235-53.235h154.733c7.664-53.028 53.235-94.041 108.334-94.041s100.877 41.014 108.334 94.041h154.94zM245.343 411.197v26.307c0 4.35 1.243 8.7 3.729 12.221l132.984 199.268c4.143 6.214 10.978 9.736 18.435 9.736h260.582c7.457 0 14.293-3.729 18.435-9.736l132.984-199.476c2.486-3.729 3.729-7.871 3.729-12.221v-26.307c0-12.221-9.943-22.164-22.164-22.164h-526.549c-12.221 0.414-22.164 10.15-22.164 22.371zM530.574 295.199c-37.907 0-69.599 27.135-76.849 62.97h153.905c-7.25-35.835-38.942-62.97-77.056-62.97zM372.32 187.901c-7.457 4.35-16.985 1.657-21.128-5.593l-65.663-113.72c-4.35-7.457-1.657-16.985 5.593-21.128 2.486-1.45 5.178-2.071 7.664-2.071 5.386 0 10.564 2.693 13.464 7.871l65.663 113.72c4.35 7.043 1.864 16.571-5.593 20.921zM535.338 129.073c-8.493 0-15.535-7.043-15.535-15.535v-129.669c0-8.493 7.043-15.535 15.535-15.535s15.535 7.043 15.535 15.535v129.669c0 8.493-6.836 15.535-15.535 15.535zM307.278 300.171c-4.35 7.457-13.878 9.943-21.128 5.593l-115.791-66.906c-7.457-4.35-9.943-13.878-5.593-21.128 2.9-4.971 8.078-7.871 13.464-7.871 2.693 0 5.386 0.621 7.664 2.071l115.791 66.906c7.25 4.35 9.736 13.878 5.593 21.335zM898.040 242.172l-116.412 67.32c-7.457 4.35-16.985 1.657-21.128-5.593-4.35-7.457-1.657-16.985 5.593-21.128l116.412-67.32c2.486-1.45 5.178-2.071 7.664-2.071 5.386 0 10.564 2.693 13.464 7.664 4.35 7.25 1.864 16.778-5.593 21.128zM718.45 186.451c-4.35 7.457-13.878 9.943-21.128 5.593-7.457-4.35-9.943-13.878-5.593-21.128l66.285-114.755c2.9-4.971 8.078-7.871 13.464-7.871 2.693 0 5.386 0.621 7.664 2.071 7.457 4.35 9.943 13.878 5.593 21.128l-66.285 114.963z" />
<glyph unicode="&#xe92c;" glyph-name="lingdang" d="M883.8 200l-20.4 15.4c-34.6 26-55.4 67.4-55.4 110.6v204.4c0 158.2-124.8 287.8-281 295.6v36.6c0 8.2-6.8 15-15 15s-15-6.8-15-15v-36.4c-156.4-7.8-281-137.6-281-295.8v-204.4c0-43.4-20.6-84.6-55.4-110.6l-20.4-15.4c-23.2-17.4-32.2-46.4-23-73.8s33.8-45.2 62.8-45.2h240.6v-10.6c0-50.6 41.2-91.6 91.6-91.6 50.6 0 91.6 41.2 91.6 91.6v10.6h240.6c29 0 53.6 17.8 62.8 45.2s-0.2 56.6-23.4 73.8zM573.6 70.6c0-34-27.6-61.6-61.6-61.6s-61.6 27.6-61.6 61.6v10.6h123.4v-10.6zM878.4 135.8c-4-12-15-24.6-34.2-24.6h-664.4c-19.2 0-30.2 12.8-34.2 24.6-4 12-2.8 28.8 12.6 40.2l20.4 15.4c42.2 31.6 67.4 82 67.4 134.6v204.4c0 146.8 119.4 266 266 266 146.8 0 266-119.4 266-266v-204.4c0-52.6 25.2-103 67.4-134.6l20.4-15.4c15.4-11.4 16.6-28.2 12.6-40.2z" />
<glyph unicode="&#xe92d;" glyph-name="login" d="M522.032 457.66c112.578 0 204.162 91.586 204.162 204.162s-91.772 203.978-204.162 203.978-204.162-91.586-204.162-203.978 91.586-204.162 204.162-204.162zM522.032 837.562c96.972 0 175.74-78.952 175.74-175.74s-78.952-175.74-175.74-175.74c-96.972 0-175.74 78.952-175.74 175.74s78.768 175.74 175.74 175.74zM852.52 334.308c-39.94 39.384-95.486 61.118-156.234 61.118h-348.322c-61.676 0-122.424-22.478-167.008-61.676-46.258-40.684-71.708-95.858-71.708-155.12v-103.66c0-18.762 26.38-44.77 45.514-44.77h733.983c18.020 0 26.008 26.194 26.008 44.77v104.404c0 60.376-22.106 115.364-62.234 154.934zM888.373 179.188v-120.938h-363.184v310.61h171.096c53.316 0 101.988-19.134 137.1-53.688 35.482-34.554 54.988-82.854 54.988-135.984zM496.952 368.862v-310.61h-357.61v120.008c0 52.388 22.478 101.060 63.348 136.914 38.826 33.996 91.772 53.502 145.274 53.502h148.988z" />
<glyph unicode="&#xe92e;" glyph-name="tyy" d="M253.4 464h-75.2c-8.2 0-15-6.8-15-15s6.8-15 15-15h75c8.2 0 15 6.8 15 15s-6.6 15-14.8 15zM253.4 397.8h-75.2c-8.2 0-15-6.8-15-15s6.8-15 15-15h75c8.2 0 15 6.8 15 15s-6.6 15-14.8 15zM253.4 331.6h-75.2c-8.2 0-15-6.8-15-15s6.8-15 15-15h75c8.2 0 15 6.8 15 15s-6.6 15-14.8 15zM912.4 596.4h-46.2c-27 112.6-128.4 196.4-249 196.4s-222.2-84-249-196.4h-256.6c-26.6 0-48.4-21.6-48.4-48v-364c0-26.6 21.6-48 48.4-48h110.2v-18c0-8.2 6.8-15 15-15s15 6.8 15 15v18h529v-18c0-8.2 6.8-15 15-15s15 6.8 15 15v18h101.8c26.6 0 48.4 21.6 48.4 48v364c-0.2 26.4-21.8 48-48.6 48zM617.2 762.8c124.6 0 226.2-101.4 226.2-226.2s-101.4-226.2-226.2-226.2-226.2 101.4-226.2 226.2 101.6 226.2 226.2 226.2zM930.8 184.4c0-10-8.2-18-18.4-18h-800.8c-10.2 0-18.4 8.2-18.4 18v364c0 10 8.2 18 18.4 18h251.2c-1.2-9.8-1.8-19.6-1.8-29.6 0-141.2 114.8-256.2 256.2-256.2s256.2 114.8 256.2 256.2c0 10-0.6 20-1.8 29.6h41c10.2 0 18.4-8.2 18.4-18v-364zM617.2 380c86.4 0 156.8 70.4 156.8 156.8s-70.4 156.8-156.8 156.8-156.8-70.4-156.8-156.8 70.4-156.8 156.8-156.8zM617.2 663.6c70 0 126.8-56.8 126.8-126.8s-56.8-126.8-126.8-126.8-126.8 56.8-126.8 126.8 56.8 126.8 126.8 126.8z" />
<glyph unicode="&#xe92f;" glyph-name="wifi" d="M512 244.4c-41 0-74.6-33.4-74.6-74.4s33.4-74.4 74.6-74.4 74.6 33.4 74.6 74.4-33.6 74.4-74.6 74.4zM512 125.8c-24.6 0-44.6 19.8-44.6 44.4s20 44.4 44.6 44.4 44.6-19.8 44.6-44.4-20-44.4-44.6-44.4zM693 352c-50.6 43.8-114.8 68-181 68s-130.4-24.2-181-68c-6.2-5.4-7-15-1.6-21.2s15-7 21.2-1.6c45 39 102.4 60.6 161.2 60.6 59 0 116.2-21.6 161.2-60.6 2.8-2.4 6.4-3.6 9.8-3.6 4.2 0 8.4 1.8 11.4 5.2 5.6 6.4 5 15.8-1.2 21.2zM512 610c-117.6 0-230-43.8-316.6-123.4-6.2-5.6-6.6-15-0.8-21.2 5.6-6.2 15-6.6 21.2-0.8 81 74.4 186.2 115.4 296.2 115.4s215.2-41 296.2-115.6c2.8-2.6 6.6-4 10.2-4 4 0 8 1.6 11 4.8 5.6 6.2 5.2 15.6-0.8 21.2-86.6 79.8-199 123.6-316.6 123.6zM963.6 620.8c-122.8 115.6-283.2 179.4-451.6 179.4s-328.8-63.8-451.6-179.4c-6-5.6-6.4-15.2-0.6-21.2 5.6-6 15.2-6.4 21.2-0.6 117.2 110.4 270.2 171.2 431 171.2s313.8-60.8 431-171.2c2.8-2.8 6.6-4 10.2-4 4 0 8 1.6 11 4.8 5.6 5.8 5.4 15.4-0.6 21z" />
<glyph unicode="&#xe930;" glyph-name="yx" d="M528 534.207c-117.836 0-213.686-95.85-213.686-213.686s95.85-213.686 213.686-213.686c117.836 0 213.686 95.85 213.686 213.686s-95.85 213.686-213.686 213.686zM528 135.571c-101.829 0-184.757 82.929-184.757 184.757s82.929 184.757 184.757 184.757 184.757-82.929 184.757-184.757-82.929-184.757-184.757-184.757zM528 592.836c55.543 0 100.864 45.321 100.864 100.864s-45.321 100.864-100.864 100.864-100.864-45.321-100.864-100.864 45.321-100.864 100.864-100.864zM528 765.636c39.729 0 71.936-32.207 71.936-71.936s-32.207-71.936-71.936-71.936c-39.729 0-71.936 32.207-71.936 71.936s32.207 71.936 71.936 71.936zM528 416.564c-53.036 0-96.043-43.007-96.043-96.043s43.007-96.236 96.043-96.236 96.043 43.007 96.043 96.043-43.007 96.236-96.043 96.236zM528 253.214c-37.029 0-67.114 30.086-67.114 67.114s30.086 67.114 67.114 67.114c37.029 0 67.114-30.086 67.114-67.114 0-36.836-30.086-67.114-67.114-67.114zM793.757 871.9h-531.514c-41.464 0-75.214-33.75-75.214-75.214v-713.571c0-41.464 33.75-75.214 75.214-75.214h531.321c41.464 0 75.214 33.75 75.214 75.214v713.571c0.193 41.657-33.557 75.214-75.021 75.214zM840.043 83.114c0-25.457-20.829-46.286-46.286-46.286h-531.514c-25.457 0-46.286 20.829-46.286 46.286v713.571c0 25.457 20.829 46.286 46.286 46.286h531.321c25.457 0 46.286-20.829 46.286-46.286v-713.571z" />
<glyph unicode="&#xe931;" glyph-name="zy" d="M321 510.4v0c4.4-28 28.2-48.2 56.4-48.2h269c28.4 0 52 20.2 56.4 48.2l31.2 197c7.6 47.4-6 95.6-37.4 132.2-31 36.6-76.6 57.4-124.6 57.4h-120c-48 0-93.6-21-124.8-57.4-31.2-36.6-44.8-84.8-37.2-132.2l31-197zM349.2 821c25.8 30.2 63.2 47.4 102.8 47.4h120c39.6 0 77.2-17.2 102.8-47.4 25.8-30.2 37-69.8 30.8-109l-31.2-197.2c-2.2-13.8-14-24-28-24h-268.8c-14 0-25.8 10-28 24l-31.2 197.2c-6.2 39 5 78.8 30.8 109zM872.6 525c-10.8 12.4-26.4 19.6-43 19.6h-18.4c-8 0-14.4-6.4-14.4-14.4s6.4-14.4 14.4-14.4h18.4c8.2 0 15.8-3.4 21.2-9.6 5.6-6.4 8-14.6 6.8-23-10.4-77.2-46-145.8-97.8-198.2-10.8 80-79.6 142-162.4 142h-171c-83 0-151.6-62-162.4-142-51.8 52.2-87.4 121-97.8 198.2-1.2 8.4 1.2 16.6 6.8 23 5.4 6.2 13 9.6 21.4 9.6h18.4c8 0 14.4 6.4 14.4 14.4s-6.4 14.4-14.4 14.4h-18.4c-16.4 0-32.2-7.2-43-19.6-11-12.6-16-29.2-13.8-45.8 24.4-181.8 178.2-320 360.4-326.6v-121.6h-71.6c-7.6 0-14.4-7.6-14.4-16s6.8-16 14.4-16h171c7.6 0 14.4 7.6 14.4 16s-6.8 16-14.4 16h-71.4v121.6c182.2 6.8 336 144.8 360.4 326.6 2.2 16.4-2.8 33.2-13.8 45.8zM426.4 398h171c74.6 0 135.2-60.6 135.2-135.2 0-0.8 0-1.6 0.2-2.4-60.6-49.6-138-79.2-221-79.2s-160.4 29.6-221 79.2c0.2 0.8 0.2 1.6 0.2 2.4 0.2 74.6 61 135.2 135.4 135.2z" />
<glyph unicode="&#xe932;" glyph-name="changzhuo" d="M922.8 763.4h-821.6c-18.8 0-34.2-15.4-34.2-34.2v-582c0-7.8 6.8-14.6 15-14.6s15 6.6 15 14.6v508.8h94v-399c0-7.8 6.8-14.6 15-14.6s15 6.6 15 14.6v383.8c18.8-18.8 50.6-36.8 90.6-59.4 55.4-31.4 124.2-70.4 188.8-128.8l2.8-2.6c62.2-56.4 111.2-100.8 179.4-100.8 8.2 0 16.8 0.6 25.4 2 47.6 7.2 77.8 47.8 94.6 80.4 2.4 4.6 4.8 9.8 7.2 15.2v-189.4c0-8.2 6.2-14.6 14-14.6s14 6.4 14 14.6v323.2c0.4 24.6 5.4 49.8 15 75.4h74v-495.2c0-7.8 6.8-14.6 15-14.6s15 6.6 15 14.6v568.4c0 18.8-15.2 34.2-34 34.2zM927.8 734.2v-49.2h-62c13.2 25.8 26.6 42 27.2 42.6 1.6 1.8 2.6 4 3.2 6.4h31.6zM861.4 734.2c-16.4-23.2-51.8-81.6-52.8-153.4-0.6-45-11-92.2-28.6-129.2-19.6-41.6-46.8-67.2-76.4-71.6-7.2-1.2-14.2-1.6-21-1.6-57 0-99.2 38.2-159.8 93.2l-2.8 2.6c-66.8 60.6-137.4 100.4-194 132.4-58.4 33-93.8 54.4-94.6 72.6-1.8 38.8-1 50.8-0.6 53.6l0.2 0.8c0 0.2 0.2 0.6 0.2 0.8h630.2zM202 684.8c-1 0.2-2 0.4-3 0.4h-102.8v49.2h105.4c-0.6-9.4-0.6-26 0.4-49.6z" />
<glyph unicode="&#xe933;" glyph-name="dianshi" d="M894.244 759.914h-696.575c-37.034 0-67.182-30.146-67.182-67.182v-452.783c0-37.034 30.146-67.182 67.182-67.182h333.866v-4.654c0-0.558 0-1.116-0.184-1.674 0-0.184 0-0.184 0-0.374v-64.579h-158.93c-8.188 0-14.702-6.698-14.702-14.702s6.698-14.702 14.702-14.702h346.892c8.188 0 14.702 6.698 14.702 14.702s-6.698 14.702-14.702 14.702h-158.93v64.579c0 0.184 0 0.374 0 0.558l-2.049 5.956h335.726c37.034 0 67.182 30.146 67.182 67.182v452.968c0 17.867-6.888 34.801-19.541 47.454s-29.588 19.725-47.454 19.725zM932.394 239.948c0-21.032-17.121-38.15-38.15-38.15h-696.575c-21.032 0-38.15 17.121-38.15 38.15v452.783c0 21.032 17.121 38.15 38.15 38.15h696.391c21.032 0 38.15-17.121 38.15-38.15v-452.783zM824.826 310.854h-83.746c-8.372 0-15.26-6.888-15.26-15.26s6.888-15.26 15.26-15.26h83.746c8.372 0 15.26 6.888 15.26 15.26 0.184 8.562-6.698 15.26-15.26 15.26z" />
<glyph unicode="&#xe934;" glyph-name="door" d="M821.2 864.6h-620.4c-21.6 0-39-17.4-39-39v-698.6c0-20.6 16-37.6 36.2-39l360.6-120h2.4c21.6 0 39 17.4 39 39v82h221c21.6 0 39 17.4 39 39v697.6c0.2 21.4-17.4 39-38.8 39zM570.2 7c0-4.2-3.2-8-7.2-8.8l-359.8 119.8h-2.4c-3.2 0-6 1.6-7.6 4.2v1c-1 1.4-1.4 3-1.4 4.8v696.6c0 4.2 3.2 8 7.2 8.8l359.8-119.8h2.4c4.8 0 9-4.2 9-9v-697.6zM830.2 128c0-4.8-4.2-9-9-9h-221v585.6c0 20.6-16 37.6-36.2 39l-273.8 91h530.8c4.8 0 9-4.2 9-9v-697.6zM441.4 432.4v-153.4c0-21.6 17.4-39 39-39h30.6v30h-30.6c-4.8 0-9 4.2-9 9v153.4c0 4.8 4.2 9 9 9h30.6v30h-30.6c-21.4 0-39-17.4-39-39z" />
<glyph unicode="&#xe935;" glyph-name="ht" d="M524 212.4c103.6 0 188 84.4 188 188v307.2c0 103.6-84.4 188-188 188s-188-84.4-188-188v-307.4c0-103.6 84.4-187.8 188-187.8zM366 707.6c0 87 70.8 158 158 158s158-70.8 158-158v-307.4c0-87-70.8-158-158-158s-158 70.8-158 158v307.4zM812.2 472.8c-8.2 0-15-6.8-15-15v-57.6c0-150.6-122.6-273.2-273.2-273.2s-273.2 122.6-273.2 273.2v57.6c0 8.2-6.8 15-15 15s-15-6.8-15-15v-57.6c0-162.2 128-295 288.2-302.8v-66.4h-158c-8.2 0-15-6.8-15-15s6.8-15 15-15h345.8c8.2 0 15 6.8 15 15s-6.8 15-15 15h-158v66.4c160.2 7.8 288.2 140.6 288.2 302.8v57.6c0.2 8.4-6.6 15-14.8 15z" />
<glyph unicode="&#xe936;" glyph-name="jiangtai" d="M849.8 755.4c-0.8 20.8-18 37.4-39 37.4h-539.2v23.8c0 0.2-1.4 20 11.4 33.8 8 8.6 20.2 13.6 36.6 14.4v-3.2c0-6.2 5.2-11.4 11.4-11.4h75.8c6.2 0 11.4 5.2 11.4 11.4v37c0 6.2-5.2 11.4-11.4 11.4h-75.8c-6.2 0-11.4-5.2-11.4-11.4v-3.6c-25.2-1.2-44.8-9.2-58.6-24.2-20-21.8-19.6-50.6-19.2-55.8v-22h-28.4c-21 0-38.2-16.6-39-37.4l-60-325.6-0.2-1.4v-1.4c0-21.6 17.4-39 39-39h300.4v-183.8c-75.2-14.4-128.2-56-128.2-106.4 0-62.8 82-111.8 186.6-111.8s186.6 49.2 186.6 111.8c0 50.4-53 92-128.2 106.4v183.8h300.4c21.6 0 39 17.4 39 39v1.4l-60 326.8zM668.6 98c0-44.4-71.6-81.8-156.6-81.8s-156.6 37.4-156.6 81.8c0 33.6 41.2 63.2 98.2 75.6v-17.8c0-37 26.2-67.2 58.4-67.2s58.4 30.2 58.4 67.2v17.8c57-12.4 98.2-42 98.2-75.6zM540.4 155.8c0-18-12.8-32.6-28.4-32.6s-28.4 14.6-28.4 32.6v232.4h56.8v-232.4zM870.8 418.2h-717.6c-4.6 0-8.4 3.6-9 8l59.8 325 0.2 1.4v1.4c0 4.8 4.2 9 9 9h28.4v-23.2c-10.6-3-18-9.2-18-16.2 0-10 14.8-18.2 33-18.2s33 8.2 33 18.2c0 7-7.4 13.2-18 16.2v23.2h539.2c4.8 0 9-4.2 9-9v-1.4l60-326.4c-0.6-4.4-4.6-8-9-8z" />
<glyph unicode="&#xe937;" glyph-name="close-o" d="M705.074 623.090c0 5.138-1.974 10.078-5.532 13.636-7.312 7.312-19.563 7.312-26.875 0l-160.663-161.653-160.861 161.653c-3.557 3.557-8.302 5.532-13.438 5.532s-9.88-1.974-13.438-5.532c-3.557-3.557-5.532-8.302-5.532-13.24 0-5.138 1.974-10.078 5.532-13.636l160.861-161.653-160.663-161.85c-3.557-3.557-5.532-8.302-5.532-13.24 0-5.138 1.974-10.078 5.532-13.636s8.302-5.532 13.438-5.532c5.138 0 9.88 1.974 13.438 5.532l160.663 161.85 160.861-161.653c3.557-3.557 8.302-5.532 13.438-5.532s9.88 1.974 13.438 5.532v0c3.557 3.557 5.532 8.302 5.532 13.438s-1.974 9.88-5.532 13.438l-160.861 161.455 160.663 161.85c3.557 3.557 5.532 8.302 5.532 13.24zM512 0c-119.559 0-232.201 46.636-316.78 131.22s-131.22 197.221-131.22 316.78c0 119.559 46.636 232.201 131.22 316.78s197.024 131.22 316.78 131.22 232.201-46.636 316.78-131.22c84.579-84.579 131.22-197.024 131.22-316.78 0-119.559-46.636-232.201-131.22-316.78s-197.221-131.22-316.78-131.22zM512 860.427c-227.458 0-412.427-184.971-412.427-412.427s184.971-412.427 412.427-412.427c227.458 0 412.427 184.971 412.427 412.427s-184.971 412.427-412.427 412.427z" />
<glyph unicode="&#xe938;" glyph-name="back-o" d="M512 0c-119.559 0-232.201 46.636-316.78 131.22s-131.22 197.221-131.22 316.78 46.636 232.201 131.22 316.78 197.024 131.22 316.78 131.22 232.201-46.636 316.78-131.22 131.22-197.024 131.22-316.78c0-119.559-46.636-232.201-131.22-316.78s-197.221-131.22-316.78-131.22zM512 860.427c-227.458 0-412.427-184.971-412.427-412.427s184.971-412.427 412.427-412.427 412.427 184.971 412.427 412.427-184.971 412.427-412.427 412.427zM631.361 654.906l-3.755 3.557c-6.323 5.927-16.204 5.927-22.725 0l-212.242-198.409c-7.115-6.521-7.115-17.786 0-24.307l212.44-198.409c6.323-5.927 16.204-5.927 22.725 0l3.755 3.359c7.115 6.521 7.115 17.786 0 24.307l-182.798 170.742c-7.115 6.521-7.115 17.786 0 24.307l182.601 170.544c7.115 6.719 7.115 17.786 0 24.307z" />
<glyph unicode="&#xe939;" glyph-name="tip" d="M512 16c-115.289 0-223.908 44.97-305.466 126.534s-126.534 190.177-126.534 305.466 44.97 223.908 126.534 305.466 189.987 126.534 305.466 126.534 223.908-44.97 305.466-126.534 126.534-189.987 126.534-305.466c0-115.289-44.97-223.908-126.534-305.466s-190.177-126.534-305.466-126.534zM512 845.697c-219.334 0-397.697-178.365-397.697-397.697s178.365-397.697 397.697-397.697 397.697 178.365 397.697 397.697-178.365 397.697-397.697 397.697zM525.339 187.123h-26.679c-8.384 0-15.243 6.861-15.243 15.243v357.302c0 8.384 6.861 15.243 15.243 15.243h26.679c8.383 0 15.243-6.861 15.243-15.243v-357.302c0-8.383-6.861-15.243-15.243-15.243zM550.111 670.764c0-21.047-17.064-38.111-38.111-38.111s-38.111 17.064-38.111 38.111c0 21.047 17.064 38.111 38.111 38.111s38.111-17.064 38.111-38.111z" />
<glyph unicode="&#xe93a;" glyph-name="delete" d="M892.4 743.8c-20.2 20.2-47 31.4-75.8 31.4h-101v4.8c0 59-48 107-107 107h-193.2c-59 0-107-48-107-107v-4.8h-101c-59 0-107-48-107-107v-48.2c0-14.8 12.2-27 27-27s27 12.2 27 27v48.2c0 29.2 23.8 53 53 53h609c29.2 0 53-23.8 53-53v-48.2c0-14.8 12.2-27 27-27s27 12.2 27 27v48.2c0.2 28.6-11 55.4-31 75.6zM661.6 780.2v-4.8h-299.2v4.8c0 29.2 23.8 53 53 53h193.2c29.2 0 53-23.8 53-53zM812.8 593.2c-14.8 0-27-12.2-27-27v-450.4c0-29.2-23.8-53-53-53h-441.6c-29.2 0-53 23.8-53 53v450.4c0 14.8-12.2 27-27 27s-27-12.2-27-27v-450.4c0-59 48-107 107-107h441.6c59 0 107 48 107 107v450.4c0 14.8-12.2 27-27 27zM443.6 169.2v372.2c0 14.8-12.2 27-27 27s-27-12.2-27-27v-372.2c0-14.8 12.2-27 27-27s27 12.2 27 27zM634.4 166.4v372.2c0 14.8-12.2 27-27 27s-27-12.2-27-27v-372.2c0-14.8 12.2-27 27-27s27 12.2 27 27z" />
<glyph unicode="&#xe93b;" glyph-name="locationB" d="M512 863.999c-183.061 0-332.129-149.069-332.129-332.129 0-248.259 309.523-486.607 322.597-496.694 2.8-2.055 5.976-3.177 9.529-3.177 3.366 0 6.721 1.122 9.529 3.177 13.264 10.087 322.597 249.563 322.597 496.511 0 183.249-149.069 332.318-332.129 332.318zM812.936 531.87c0-87.426-43.335-185.68-128.706-291.783-67.431-83.682-141.592-147.382-170.364-170.919l-1.866-1.495-1.866 1.495c-28.769 23.35-102.922 86.859-170.364 170.548-85.371 105.912-128.706 204.167-128.706 292.151 0 165.875 135.058 300.936 300.936 300.936s300.936-135.058 300.936-300.936zM512 677.761c-80.509 0-145.891-65.377-145.891-145.891s65.377-145.891 145.891-145.891c80.509 0 145.891 65.377 145.891 145.891 0 80.327-65.377 145.891-145.891 145.891zM626.698 531.87c0-63.323-51.556-114.698-114.698-114.698-63.323 0-114.698 51.556-114.698 114.698s51.556 114.698 114.698 114.698c63.323 0 114.698-51.556 114.698-114.698z" />
<glyph unicode="&#xe93c;" glyph-name="coupon" d="M902.477 521.899l13.213 1.388v168.987c0 29.733-24.161 53.897-53.897 53.897h-699.587c-29.733 0-53.897-24.161-53.897-53.897v-168.987l12.868-1.742c36.853-4.691 64.675-36.331 64.675-73.545s-27.814-68.85-64.675-73.545l-12.868-1.742v-168.987c0-29.733 24.161-53.897 53.897-53.897h699.587c29.733 0 53.897 24.161 53.897 53.897v168.987l-13.213 1.388c-37.896 3.83-66.588 35.641-66.588 73.886s28.69 70.061 66.588 73.886zM806.508 448.177c0-48.853 33.554-90.057 79.801-101.014v-143.261c0-13.39-10.948-24.342-24.342-24.342h-156.642v21.384h-29.555v-21.384h-513.564c-13.39 0-24.342 10.948-24.342 24.342v143.782c45.033 11.648 77.536 52.854 77.536 100.313s-32.51 88.664-77.536 100.313v143.782c0 13.39 10.948 24.342 24.342 24.342h513.388v-30.777h29.555v30.777h156.642c13.39 0 24.342-10.948 24.342-24.342v-143.261c-46.244-10.605-79.621-51.811-79.621-100.661zM675.594 285.972h29.555v-48.16h-29.555v48.16zM675.594 360.735h29.555v-48.16h-29.555v48.16zM675.594 435.318h29.555v-48.16h-29.555v48.16zM675.594 510.071h29.555v-48.16h-29.555v48.16zM675.594 584.831h29.555v-48.16h-29.555v48.16zM675.594 659.412h29.555v-48.16h-29.555v48.16z" />
<glyph unicode="&#xe93d;" glyph-name="zan" d="M914.309 564.677c-26.148 34.206-76.865 38.531-117.95 38.531h-176.928l29.093 181.056c5.306 29.093-12.383 57.993-40.496 66.644l-48.163 24.965-1.769 0.392c-13.566 3.737-27.915-1.574-35.582-13.17l-169.655-259.89h-135.447c-70.574 0-128.176-57.404-128.176-128.176v-330.856c0-70.574 57.404-128.176 128.176-128.176h480.656c67.431 0 116.183 44.035 137.416 123.85l88.466 330.658c10.814 40.105 7.667 71.753-9.632 94.163zM122.65 144.372v330.856c0 52.291 42.461 94.757 94.757 94.757h120.9v-520.365h-120.9c-52.291 0-94.757 42.461-94.757 94.757zM891.7 479.554l-88.466-330.856c-17.496-65.659-52.88-99.078-105.176-99.078h-326.337v521.35c0 0 0 0.198 0 0.198l177.913 272.472 46-23.787 1.769-0.392c12.581-3.539 20.642-16.318 18.283-29.093l-35.384-220.374h216.048c30.865 0 74.113-2.554 91.411-25.361 10.617-13.957 11.993-35.78 3.93-65.070z" />
<glyph unicode="&#xe93e;" glyph-name="fabu" d="M888.291 817.674c-2.077-1.133-56.479-29.091-140.539-71.402-216.283-108.994-618.253-311.675-637.712-322.068-13.413-6.99-20.78-18.888-19.645-30.79 0.944-9.633 7.178-17 17-20.213 22.291-7.178 246.318-82.546 248.584-83.303l3.020-0.755c11.9-3.209 23.234 6.046 23.234 17.755 0 7.556-4.535 14.357-11.522 17.189l-2.643 0.944-223.273 74.612 8.5 4.724 688.522 358.144-15.112-16.811c-29.28-33.245-94.825-107.483-163.207-184.738-100.116-113.335-203.441-230.263-210.242-238.196-16.433-18.51-24.178-37.025-24.178-58.178l0.189-178.886c0.755-9.255 7.934-16.622 17.566-16.622 9.821 0 17.755 7.367 17.755 17v3.020c0 48.545 1.51 162.261 0.944 171.896-0.566 11.9 5.102 24.745 10.576 31.168 6.612 7.367 341.71 386.858 399.134 451.836l10.576 12.279-3.398-15.867c-19.834-98.981-108.616-540.238-109.749-545.529-2.077-8.5-7.556-7.178-10.010-6.235-2.454 0.755-31.168 10.954-67.626 24.178-59.313 21.347-140.728 50.433-150.549 53.459l-3.020 0.755c-1.888 0.566-3.777 0.944-5.857 0.944-10.199 0-18.51-8.311-18.51-18.51 0-7.745 4.913-14.735 12.469-17.377l2.832-0.944-0.189-0.189c119.57-43.067 210.62-75.37 221.951-78.581 6.046-1.699 12.090-1.888 12.090-1.888 0.189 0.189 8.311 0 16.056 3.020 13.791 5.668 23.801 18.132 26.821 33.811 0.566 2.832 3.020 14.735 6.612 33.245 6.99 34.377 18.51 92.183 32.112 159.238l9.066 45.714c47.979 238.196 72.724 361.169 73.479 365.888l0.566 3.020c3.020 11.9 3.777 23.612-11.332 30.79-2.265 1.133-7.367 1.699-10.010 1.699-7.745 0-9.633-2.832-20.969-8.5z" />
<glyph unicode="&#xe93f;" glyph-name="people" d="M677.767 419.619l-1.509 0.377 1.32 0.566c75.245 34.509 123.896 110.131 123.896 192.73 0 116.919-95.045 211.964-211.964 211.964s-211.964-95.045-211.964-211.776c0-82.599 48.654-158.221 123.708-192.73l1.509-0.754-1.509-0.377c-151.244-40.166-256.849-177.079-256.849-333.223 0-8.674 6.977-15.651 15.651-15.651s15.651 6.977 15.651 15.651c0 172.93 140.681 313.609 313.609 313.609s313.609-140.681 313.609-313.609c0-8.674 6.977-15.651 15.651-15.651s15.651 6.977 15.651 15.651c0.189 156.147-105.228 293.055-256.472 333.223zM770.36 613.292c0-99.571-81.091-180.661-180.661-180.661-99.759 0-180.85 81.091-180.85 180.661s81.091 180.661 180.661 180.661c99.759-0.189 180.85-81.091 180.85-180.661zM402.061 415.659v0l1.32 2.451 0.566 0.377c-0.566 8.297-6.977 14.709-15.274 14.709-84.674 0-153.319 68.834-153.319 153.507s69.022 153.507 153.696 153.507c8.674 0 15.651 6.977 15.651 15.651s-6.977 15.651-15.651 15.651c-102.022 0-184.81-82.976-184.81-184.81 0-70.342 39.411-133.891 102.588-165.576l1.131-0.566-1.32-0.377c-127.856-36.583-217.056-155.016-217.056-287.963 0-8.674 6.977-15.651 15.651-15.651s15.651 6.977 15.651 15.651c0 148.038 118.805 268.352 266.843 268.352 8.486 0.189 14.331 6.789 14.331 15.086z" />
<glyph unicode="&#xe940;" glyph-name="time" d="M507.072 678.668h-0.194c-10.036 0-17.951-8.109-17.951-17.951v-229.703c0-10.036 8.109-17.951 17.951-17.951h229.703c10.036 0 17.951 8.109 17.951 17.951v0.194c0 10.036-8.109 17.951-17.951 17.951h-193.607c-10.036 0-17.951 8.109-17.951 17.951v193.415c0 10.036-8.109 18.145-17.951 18.145zM511.901 880.001c-238.005 0-431.806-193.801-431.806-432 0-88.215 26.636-173.341 76.828-245.92 5.982-8.302 16.406-8.109 23.744-4.248 7.915 6.176 7.721 16.406 3.861 23.551-47.291 67.174-71.422 143.614-71.422 226.811 0 220.054 178.94 398.994 398.994 398.994s398.801-179.132 398.801-398.994-178.94-398.994-398.801-398.994c-82.422 0-160.988 24.902-227.388 71.807-2.897 2.122-6.176 3.090-9.266 3.090-5.212 0-10.424-2.703-14.091-7.915-5.406-7.527-3.473-17.375 4.824-23.357 72.386-50.187 157.511-76.828 245.726-76.828 238.199 0 432 193.801 432 432s-193.801 432-432 432z" />
<glyph unicode="&#xe941;" glyph-name="ly2" d="M757.138 879.999h-490.48c-100.877 0-182.886-82.013-182.886-182.69v-369.944c0-100.677 82.013-182.69 182.69-182.69h114.977l123.912-123.512c3.376-3.576 7.547-4.568 10.328-4.964h0.2c0.596 0 1.192-0.2 1.788-0.2 4.368 0 8.34 1.588 11.516 4.766l106.236 123.912h121.924c100.877 0 182.886 82.013 182.886 182.69v369.944c-0.2 100.877-82.209 182.69-183.086 182.69zM296.445 617.284h436.27c8.936 0 16.284-7.348 16.284-16.284s-7.348-16.284-16.284-16.284h-436.27c-8.936 0-16.284 7.348-16.284 16.284s7.348 16.284 16.284 16.284zM741.651 435.585h-445.206c-8.936 0-16.284 7.348-16.284 16.284s7.348 16.284 16.284 16.284h445.206c8.936 0 16.284-7.348 16.284-16.284 0-9.136-7.348-16.284-16.284-16.284z" />
<glyph unicode="&#xe942;" glyph-name="ly" d="M733.145 405.587h-428.717c-8.605 0-15.681-7.076-15.681-15.681s7.076-15.681 15.681-15.681h428.717c8.605 0 15.681 7.076 15.681 15.681s-7.076 15.681-15.681 15.681zM304.429 518.216h420.112c8.605 0 15.681 7.076 15.681 15.681s-7.076 15.681-15.681 15.681h-420.112c-8.605 0-15.681-7.076-15.681-15.681 0-8.798 7.076-15.681 15.681-15.681zM748.059 802.369h-472.314c-97.141 0-176.112-78.975-176.112-175.924v-356.242c0-96.948 78.975-175.924 175.924-175.924h110.719l119.323-118.937c3.251-3.444 7.267-4.399 9.945-4.78h0.193c0.574 0 1.148-0.193 1.722-0.193 4.206 0 8.031 1.529 11.089 4.589l102.301 119.323h117.408c97.141 0 176.112 78.975 176.112 175.924v356.242c-0.193 97.141-79.164 175.924-176.305 175.924zM893.003 626.446v-356.242c0-79.738-65.013-144.755-144.944-144.755h-118.556c-4.206 0-8.224-1.722-11.282-4.78l-101.921-112.628-117.22 112.628c-2.296 2.484-5.354 4.017-8.798 4.589l-1.339 0.193h-113.395c-79.738 0-144.755 65.013-144.755 144.755v356.242c0 79.738 65.013 144.755 144.944 144.755h472.314c79.932 0 144.944-64.825 144.944-144.755z" />
<glyph unicode="&#xe943;" glyph-name="zan2" d="M914.311 564.675c-26.148 34.206-76.865 38.531-117.95 38.531h-176.928l29.093 181.056c5.306 29.093-12.383 57.993-40.496 66.644l-48.163 24.965-1.769 0.392c-13.566 3.737-27.915-1.574-35.582-13.17l-151.567-232.367c0.589-1.574 0.787-3.341 0.787-4.915v-609.811h326.336c67.431 0 116.183 44.035 137.416 123.85l88.466 330.658c10.813 40.105 7.667 71.752-9.632 94.163zM217.409 603.4c-70.574 0-128.176-57.404-128.176-128.176v-330.856c0-70.574 57.404-128.176 128.176-128.176h120.9v587.207h-120.9z" />
<glyph unicode="&#xe944;" glyph-name="delete2" d="M807.299 755.612h-107.611v14.347c0 51.771-42.267 94.038-94.038 94.038h-187.301c-51.771 0-94.038-42.267-94.038-94.038v-14.347h-107.611c-51.771 0-94.038-42.267-94.038-94.038v-46.73c0-8.919 7.561-16.48 16.48-16.48s16.48 7.561 16.48 16.48v46.73c0 33.735 27.339 61.077 61.077 61.077h590.408c33.735 0 61.077-27.339 61.077-61.077v-46.73c0-8.919 7.561-16.48 16.48-16.48s16.48 7.561 16.48 16.48v46.73c0.195 25.012-9.503 48.476-27.145 66.505-17.839 17.642-41.493 27.533-66.702 27.533zM666.728 755.808h-309.456v14.347c0 33.735 27.339 61.077 61.077 61.077h187.301c33.735 0 61.077-27.339 61.077-61.077v-14.347zM803.617 579.172c-8.919 0-16.48-7.561-16.48-16.48v-436.651c0-33.735-27.339-61.077-61.077-61.077h-428.119c-33.735 0-61.077 27.339-61.077 61.077v436.651c0 8.919-7.561 16.48-16.48 16.48s-16.48-7.561-16.48-16.48v-436.651c0-51.771 42.267-94.038 94.038-94.038h428.119c51.771 0 94.038 42.267 94.038 94.038v436.651c0 8.919-7.561 16.48-16.48 16.48zM435.991 177.811v360.839c0 8.919-7.561 16.48-16.48 16.48s-16.48-7.561-16.48-16.48v-360.839c0-8.919 7.561-16.48 16.48-16.48s16.48 7.561 16.48 16.48zM604.489 552.414c-8.919 0-16.48-7.561-16.48-16.48v-360.839c0-8.919 7.561-16.48 16.48-16.48s16.48 7.561 16.48 16.48v360.839c0 8.919-7.561 16.48-16.48 16.48z" />
<glyph unicode="&#xe945;" glyph-name="success" d="M931.629 774.416q20.066 0 33.347-13.313t13.313-33.347q0-19.679-13.473-33.152l-559.551-559.551q-13.473-13.473-33.152-13.473t-33.152 13.473l-279.776 279.776q-13.473 13.473-13.473 33.152 0 20.066 13.313 33.347t33.347 13.313q19.679 0 33.152-13.473l246.623-247.006 526.399 526.785q13.473 13.473 33.152 13.473z" />
<glyph unicode="&#xe946;" glyph-name="activity" d="M732 880.8c-69.6 15.4-141.8-0.8-203.2-45.6-37.2-27.2-67.6-62.8-89.6-104.2-46.4 42.2-107.2 64-169.8 54.6-118-17.8-197.6-140-177.8-272.4 9.6-63.8 40.6-120.6 87.6-159.8 37-31 80.2-48.2 124.8-50l-23.8-18.2c-7-5.2-3.2-16.4 5.6-16.4h42.6c7-23.4 15-68.8-6.2-116.8-4.4-8-40-74.8-24.4-131.2 2.6-9.2 12.8-13.8 21.2-9.6 6.4 3.2 9.6 10.4 7.8 17.4-13.2 46.6 21.6 108.6 22 109.4l0.6 1.2c23.2 51.8 17.8 100.2 10.4 129.6h26.6c8.8 0 12.4 11.2 5.4 16.4l-31.8 23.8c42.6 10.6 80.2 35 109 70.8 34.6-41 80.6-70.6 134.6-82.4 0.2 0 0.4 0 0.6-0.2l-21.8-11.2c-7.6-3.8-5.8-15 2.6-16.4l26.2-4.4c-11.6-22.4-18.2-54.4-1-90.2l0.8-1.6c0.2-0.4 25.2-41 12.6-66-3-5.6-2.2-12.6 2-17.2 7-7.8 19.6-6.2 24.6 3.2 19.6 36.8-7.2 85.2-13 94.6-0.2 0.4-0.6 1-0.8 1.6-14.8 32.4-2.4 57.8 6.4 70.4l47.6-8c8.2-1.4 13.6 8.4 7.8 14.6l-24.2 25.8c117.6 9.6 223.8 105 253.4 239.4 35.4 161-52.4 317.6-195.4 349zM337.4 335c-48.8-7.4-98.2 7.4-138.8 41.4-41.2 34.6-68.6 84.6-77.2 141.2-17.4 116.2 51 223 152.6 238.4 8.2 1.2 16.4 1.8 24.6 1.8 47.4 0 92.6-20.6 127.4-55.2-7.4-18-13.4-36.8-17.6-56.4-19.4-88.6-1.6-175.8 42-241.4-28.6-38.4-68.2-63-113-69.8zM898 538.4c-31.8-144.8-161-239.8-288-211.8s-204.4 168.4-172.6 313.2c15.4 70.4 54.2 131.2 109 171.4 41 30 87.4 45.4 133.8 45.4 15 0 30.2-1.6 45-5 127.2-28 204.6-168.4 172.8-313.2zM770 769.6c-8.4 3.8-18.4-1-20.6-10v0c-1.8-7.2 1.8-14.6 8.6-17.6 24-10.8 43.2-34.8 54.6-68.6 12.6-38.2 14.4-84.2 4.8-131.2-1.6-8 3.4-15.4 11-17.4 8.4-2.2 16.6 3.2 18.4 11.8 10.6 52 8.6 103.4-5.6 146.6-14.2 42.2-39.2 72.2-71.2 86.4zM831.337 495.511c0.491-8.269-5.815-15.371-14.084-15.862s-15.371 5.815-15.862 14.084c-0.491 8.269 5.815 15.371 14.084 15.862s15.371-5.815 15.862-14.084z" />
<glyph unicode="&#xe947;" glyph-name="bookbar" d="M911.913 698.746c-16.364 4.703-32.544 8.278-48.153 11.101v54.739c0.378 14.298-7.335 27.086-18.624 31.039-34.234 11.849-69.22 17.868-103.836 17.868-132.050 0-221.21-88.6-228.923-96.684h-0.378c-7.713 7.902-93.674 93.674-222.155 96.684h-4.892c-34.988 0.189-70.725-5.83-105.902-17.868-11.288-3.948-18.998-16.364-18.998-31.039v-55.117c-15.615-2.631-31.411-6.397-47.779-10.912-12.605-3.577-21.256-15.237-21.256-28.78v-502.24c0-16.742 13.165-29.907 28.78-29.907 1.316 0 2.821 0.189 4.325 0.378 24.644 3.763 61.325 7.902 104.397 7.902 78.251 0 177.193-13.543 262.595-67.53 6.019-3.763 12.793-5.641 19.562-5.641h2.258c6.773 0 13.543 1.883 19.562 5.641 85.402 53.985 184.53 67.53 262.595 67.53 43.079 0 79.756-4.136 104.397-7.902 1.505-0.189 2.821-0.378 4.325-0.378 15.615 0 28.78 13.165 28.78 29.907v502.429c0.567 13.354-8.091 25.204-20.689 28.78zM530.057 690.277l0.189 0.189c5.453 5.641 25.77 25.204 57.938 44.584 21.823 12.978 44.395 23.328 66.777 30.474 28.78 9.218 57.749 13.732 86.528 13.732 31.224 0 61.325-5.453 93.301-16.174l-0.189-502.429c-20.503 3.763-50.036 7.902-86.528 7.902-83.708 0-159.892-22.194-220.65-64.52l-0.378 482.867 3.010 3.388zM190.152 762.89c31.224 10.722 61.136 16.174 93.115 16.174 29.347 0 58.5-4.703 86.528-13.732 23.139-7.524 45.521-17.679 66.588-30.474 37.244-22.383 57.938-44.584 58.127-44.769l3.010-3.388-0.189-482.489c-60.38 42.134-136.564 64.52-220.65 64.52-36.682 0-66.025-4.325-86.528-7.902v502.051zM228.901 175.809c-45.521 0-84.271-4.514-108.537-8.278v502.24c13.165 3.763 26.523 6.958 39.88 9.407v-420.604c0-17.679 11.473-32.167 25.77-32.167 1.127 0 2.631 0.189 3.948 0.378 19.562 3.577 50.414 7.902 86.528 7.902 85.591 0 158.759-22.761 217.263-67.715 0.938-0.567 1.694-1.316 2.631-1.694v-55.117c-72.985 43.079-165.155 65.651-267.487 65.651zM904.388 167.537c-24.455 3.763-63.201 8.278-108.537 8.278-102.331 0-194.502-22.761-267.487-65.651v55.49c0.567 0.378 1.316 0.938 1.883 1.316 72.985 55.866 158.574 67.715 217.263 67.715 36.115 0 66.966-4.325 86.528-7.902h0.378c1.127-0.189 2.258-0.378 3.388-0.378 14.298 0 25.77 14.483 25.77 32.167v420.982c13.543-2.443 27.086-5.641 40.629-9.407 0 0 0 0 0.189 0v-502.618z" />
<glyph unicode="&#xe948;" glyph-name="coffe" d="M449.891 639.5c-5.71-37.121-45.152-71.924-49.615-75.85-3.213-2.676-7.139-4.105-11.065-4.105-4.818 0-9.46 1.963-12.849 5.889-6.068 7.139-5.355 17.669 1.784 23.914 9.46 8.21 34.979 34.266 38.371 55.504 2.855 18.204-4.639 25.877-16.954 38.729-10.352 10.707-23.201 24.093-26.948 45.331-12.136 66.927 43.905 110.653 46.402 112.437 7.497 5.71 18.025 4.284 23.737-3.213 5.71-7.318 4.284-18.025-3.034-23.737-0.179-0.179-11.244-8.923-20.703-23.38-11.957-18.383-16.42-37.3-13.028-56.396 1.963-11.244 9.102-18.562 18.025-27.84 13.92-14.457 31.232-32.482 25.877-67.282v0zM574.643 639.5c-5.889-37.121-45.152-71.924-49.615-75.85-3.213-2.676-7.139-4.105-11.065-4.105-4.818 0-9.46 1.963-12.849 5.889-6.068 7.139-5.355 17.669 1.784 23.914 9.46 8.21 34.979 34.266 38.371 55.504 2.855 18.204-4.639 25.877-16.954 38.729-10.352 10.707-23.201 24.093-26.948 45.331-12.136 66.927 43.905 110.653 46.402 112.437 7.497 5.71 18.025 4.284 23.737-3.213 5.71-7.318 4.284-18.025-3.034-23.737-0.179-0.179-11.244-8.923-20.703-23.38-11.957-18.383-16.42-37.3-13.028-56.396 1.963-11.244 9.102-18.562 18.025-27.84 13.92-14.457 31.411-32.482 25.877-67.282v0zM324.963 639.5c-5.71-37.121-45.152-71.924-49.615-75.85-3.213-2.676-7.139-4.105-11.065-4.105-4.818 0-9.46 1.963-12.849 5.889-6.068 7.139-5.355 17.669 1.784 23.914 9.46 8.21 34.979 34.266 38.371 55.504 2.855 18.204-4.639 25.877-16.954 38.729-10.352 10.707-23.201 24.093-26.948 45.331-12.136 66.927 43.905 110.653 46.402 112.437 7.497 5.71 18.025 4.284 23.737-3.213 5.71-7.318 4.284-18.025-3.034-23.737-0.179-0.179-11.244-8.923-20.703-23.38-11.957-18.383-16.42-37.3-13.028-56.396 1.963-11.244 9.102-18.562 18.025-27.84 13.92-14.457 31.411-32.482 25.877-67.282v0zM802.727 470.667c-25.701 0-49.257-9.815-66.927-25.877v63.179c0 9.281-7.497 16.954-16.954 16.954h-608.763c-9.281 0-16.954-7.497-16.954-16.954v-185.608c0-51.578 9.102-97.801 27.306-137.601 14.635-32.124 35.158-60.145 60.859-82.81 43.905-38.907 87.986-49.615 89.77-50.149 1.25-0.358 2.499-0.535 3.926-0.535h253.606c1.071 0 2.142 0.179 3.213 0.358 2.142 0.358 52.112 10.173 102.264 47.831 29.627 22.309 53.183 49.794 70.14 81.739 21.059 39.621 31.769 86.023 31.769 137.959v45.868c0.713 1.784 1.071 3.926 1.071 5.889 0 36.229 29.627 65.856 65.856 65.856s65.856-29.627 65.856-65.856c0-36.229-29.627-65.856-65.856-65.856-9.281 0-16.954-7.497-16.954-16.954 0-9.281 7.497-16.954 16.954-16.954 54.97 0 99.586 44.618 99.586 99.586-0.179 55.146-44.797 99.943-99.764 99.943v0zM701.892 319.143c0-45.868-9.281-86.736-27.306-121.181-14.457-27.485-34.624-51.22-59.967-70.495-39.621-30.161-80.134-40.513-87.986-42.118h-249.501c-7.673 2.142-40.334 12.671-73.35 41.941-22.13 19.633-39.8 43.726-52.47 71.566-16.062 35.337-24.272 76.921-24.272 123.502v168.654h575.031v-171.867h-0.179z" />
<glyph unicode="&#xe949;" glyph-name="chufang" d="M921.184 733.042v0c-6.28 4.434-14.964 2.771-19.212-3.51l-292.248-420.452c0 0 0 0 0 0h-244.586l-0.37-14.41c0-1.108 0-2.032 0-3.14 0-74.448 60.592-135.040 135.040-135.040s135.040 60.592 135.040 135.040c0 1.108 0 2.216 0 3.14v1.662l289.846 417.496c4.248 6.28 2.771 14.778-3.51 19.212zM499.808 184.016c-55.79 0-101.788 42.674-106.96 97.17h213.736c-4.988-54.496-50.986-97.17-106.776-97.17zM863.546 493.814c-40.272-21.798-67.796-64.472-67.796-113.61v-175.68c0-63.548-51.54-115.274-115.274-115.274h-381.474c-63.548 0-115.274 51.54-115.274 115.274v175.496c0 3.88-0.184 7.574-0.554 11.268h363c6.65 0 12.192 5.542 12.192 12.192v3.326c0 6.65-5.542 12.192-12.192 12.192h-365.402c-0.924 0-2.032-0.184-2.956-0.37-9.976 31.774-31.774 58.19-60.408 74.078-9.236 5.172-20.506-1.662-20.506-12.192 0-4.988 2.586-9.606 7.020-12.008 31.036-17.364 52.094-50.432 52.094-88.487v-175.496c0-78.88 63.918-142.984 142.984-142.984h381.474c78.88 0 142.984 63.918 142.984 142.984v175.68c0 38.61 21.614 72.046 53.388 89.226 4.434 2.402 7.204 7.020 7.204 12.008v0c-0.184 10.53-11.454 17.364-20.506 12.378zM416.678 553.482c-4.248-5.542-3.88-13.116 1.108-18.104l0.37-0.37c5.726-5.726 15.332-5.172 20.32 1.294 25.494 32.513 23.092 64.472 15.887 86.64-8.498 25.862-25.308 43.228-26.048 44.152-24.2 24.2-36.208 49.878-35.838 76.294 0.37 30.48 17.364 55.79 27.526 68.352 4.248 5.172 4.064 12.932-0.554 17.734l-0.37 0.37c-5.542 6.096-15.332 5.726-20.506-0.738-12.932-15.702-33.068-46.552-33.806-85.162-0.554-34.36 14.224-66.874 43.782-96.43 1.848-1.848 44.706-46.922 8.128-94.029zM585.154 613.52c6.836-21.429 2.956-41.564-11.454-60.038-4.248-5.542-3.88-13.3 0.924-18.104l0.37-0.37c5.726-5.726 15.332-5.172 20.32 1.294 25.494 32.513 23.092 64.472 15.887 86.64-8.498 25.862-25.308 43.228-26.048 44.152-24.2 24.2-36.208 49.878-35.838 76.294 0.37 30.48 17.364 55.79 27.526 68.352 4.248 5.172 4.064 12.932-0.554 17.734l-0.37 0.37c-5.542 6.096-15.332 5.726-20.506-0.738-12.932-15.702-33.068-46.552-33.806-85.162-0.554-34.36 14.040-66.688 43.782-96.43 0.924-0.738 13.67-14.594 19.766-33.99z" />
<glyph unicode="&#xe94a;" glyph-name="chuwugui" d="M870.918 502.068h-20.697l-91.923 300.188c-1.305 18.087-16.966 32.443-36.358 32.443h-420.072c-19.207 0-35.053-14.356-36.358-32.443l-91.731-300.188h-20.697c-28.343 0-51.274-22.931-51.274-51.274v-338.408c0-28.343 22.931-51.274 51.274-51.274h717.836c28.343 0 51.274 22.931 51.274 51.274v338.408c0 28.343-22.931 51.274-51.274 51.274zM293.477 797.783v2.050c0 3.731 3.915 6.902 8.391 6.902h420.072c4.476 0 8.391-3.171 8.391-6.902v-2.050l90.058-294.777h-617.154l90.242 294.777zM894.225 112.573c0-12.867-10.441-23.307-23.307-23.307h-717.836c-12.867 0-23.307 10.441-23.307 23.307v338.221c0 12.867 10.441 23.307 23.307 23.307h717.836c12.867 0 23.307-10.441 23.307-23.307v-338.221zM588.070 429.729h-151.956c-27.967 0-50.529-22.747-50.529-50.529 0-27.967 22.747-50.529 50.529-50.529h151.956c27.967 0 50.529 22.747 50.529 50.529s-22.747 50.529-50.529 50.529zM588.070 356.453h-151.956c-12.49 0-22.563 10.069-22.563 22.563s10.069 22.563 22.563 22.563h151.956c12.49 0 22.563-10.069 22.563-22.563 0-12.306-10.069-22.563-22.563-22.563z" />
<glyph unicode="&#xe94b;" glyph-name="daohang" d="M850.316 786.66c-3.093 3.093-7.048 4.64-11.344 4.64-2.064 0-3.952-0.344-5.844-1.032l-750.8-292.036c-6.36-2.581-10.484-8.767-10.14-15.639s4.984-12.72 11.688-14.612l351.508-97.976 96.084-349.616c1.892-6.704 7.736-11.344 14.612-11.688 0.344 0 0.516 0 0.86 0 6.532 0 12.548 4.124 14.954 10.14l292.036 750.628c2.236 6.016 0.86 12.72-3.608 17.188zM810.78 747.124l-261.268-671.732-85.772 311.632c-1.548 5.328-5.672 9.623-11.172 11.172l-313.692 87.664 671.904 261.268z" />
<glyph unicode="&#xe94c;" glyph-name="dayinji" d="M696.288 564.046c0-7.986-6.474-14.46-14.46-14.46s-14.46 6.474-14.46 14.46c0 7.986 6.474 14.46 14.46 14.46s14.46-6.474 14.46-14.46zM755.472 564.046c0-7.986-6.474-14.46-14.46-14.46s-14.46 6.474-14.46 14.46c0 7.986 6.474 14.46 14.46 14.46s14.46-6.474 14.46-14.46zM814.65 564.046c0-7.986-6.474-14.46-14.46-14.46s-14.46 6.474-14.46 14.46c0 7.986 6.474 14.46 14.46 14.46s14.46-6.474 14.46-14.46zM879.423 671.808h-137.444v171.178c0 29.302-23.71 53.014-53.014 53.014h-353.929c-29.302 0-53.014-23.71-53.014-53.014v-171.178h-137.444c-29.302 0-53.014-23.71-53.014-53.014v-339.469c0-29.302 23.71-53.014 53.014-53.014h137.444v-226.311h459.951v226.311h137.444c29.302 0 53.014 23.71 53.014 53.014v339.469c0 29.302-23.902 53.014-53.014 53.014zM310.942 842.986c0 13.301 10.794 24.094 24.094 24.094h353.929c13.301 0 24.094-10.794 24.094-24.094v-170.602h-402.122v170.602zM713.058 28.914h-402.122v344.673h402.122v-344.673zM903.517 279.325c0-13.301-10.794-24.094-24.094-24.094h-137.444v147.276h-459.951v-147.276h-137.444c-13.301 0-24.094 10.794-24.094 24.094v339.469c0 13.301 10.794 24.094 24.094 24.094h734.846c13.301 0 24.094-10.794 24.094-24.094v-339.469zM373.205 275.279h277.59v-28.914h-277.59v28.914zM373.205 161.929h277.59v-28.914h-277.59v28.914z" />
<glyph unicode="&#xe94d;" glyph-name="slh" d="M512 531.7c-46.173 0-83.616-37.442-83.616-83.616s37.442-83.784 83.616-83.784 83.616 37.442 83.616 83.616c0 46.173-37.442 83.784-83.616 83.784zM512 389.485c-32.237 0-58.431 26.193-58.431 58.431s26.193 58.431 58.431 58.431 58.431-26.193 58.431-58.431c0-32.071-26.193-58.431-58.431-58.431zM807.343 531.7c-46.173 0-83.616-37.442-83.616-83.616s37.442-83.784 83.616-83.784 83.616 37.442 83.616 83.616c0 46.173-37.442 83.784-83.616 83.784zM807.343 389.485c-32.237 0-58.431 26.193-58.431 58.431s26.193 58.431 58.431 58.431 58.431-26.193 58.431-58.431c0-32.071-26.193-58.431-58.431-58.431zM216.657 531.7c-46.173 0-83.616-37.442-83.616-83.616s37.442-83.784 83.616-83.784 83.616 37.442 83.616 83.616c0 46.173-37.442 83.784-83.616 83.784zM216.657 389.485c-32.237 0-58.431 26.193-58.431 58.431s26.193 58.431 58.431 58.431 58.431-26.193 58.431-58.431c0-32.071-26.193-58.431-58.431-58.431z" />
<glyph unicode="&#xe94e;" glyph-name="duogongneng" d="M345.138 861.068h-128.398c-67.636 0-122.824-55.002-122.824-122.638v-139.92c0-67.636 55.002-122.824 122.824-122.824h128.584c33.076 0 63.734 12.822 86.776 36.234 23.042 23.226 35.862 54.072 35.862 86.59v139.92c-0.186 67.636-55.188 122.638-122.824 122.638zM438.417 592.564c0-48.312-39.392-87.704-87.705-87.704h-139.362c-48.312 0-87.705 39.392-87.705 87.704v151.812c0 48.312 39.392 87.705 87.705 87.705h139.362c48.312 0 87.705-39.392 87.705-87.705v-151.812zM345.138 420.5h-128.398c-67.636 0-122.824-55.002-122.824-122.824v-139.548c0-67.636 55.002-122.824 122.824-122.824h128.584c33.076 0 63.734 12.822 86.776 36.234 23.042 23.226 35.862 54.072 35.862 86.59v139.734c-0.186 67.636-55.188 122.638-122.824 122.638zM438.417 151.996c0-48.312-39.392-87.704-87.705-87.704h-139.362c-48.312 0-87.705 39.392-87.705 87.704v151.812c0 48.312 39.392 87.705 87.705 87.705h139.362c48.312 0 87.705-39.392 87.705-87.705v-151.812zM782.176 421.428h-128.398c-67.636 0-122.824-55.002-122.824-122.824v-139.734c0-67.636 55.002-122.638 122.824-122.638h128.584c32.89 0 63.734 12.822 86.776 36.048s35.862 54.072 35.862 86.59v139.734c-0.186 67.822-55.188 122.824-122.824 122.824zM875.456 153.11c0-48.312-39.392-87.705-87.704-87.705h-139.362c-48.312 0-87.705 39.392-87.705 87.705v151.812c0 48.312 39.392 87.705 87.705 87.705h139.362c48.312 0 87.704-39.392 87.704-87.705v-151.812zM882.888 742.704l-89.378 87.334c-43.666 42.552-114.648 42.552-158.314 0l-81.944-80.272c-21.183-20.626-32.704-48.312-32.704-77.486s11.706-56.674 32.704-77.3l89.378-87.52c21.74-21.368 50.356-31.96 78.972-31.96s57.417 10.778 79.158 32.146l82.13 80.458c21.183 20.812 32.89 48.312 32.704 77.486-0.186 29.358-11.706 56.674-32.704 77.114zM666.598 523.812l-96.996 94.952c-14.866 14.494-22.856 33.632-22.856 54.258s8.176 39.764 22.856 54.258l89.006 87.148c15.236 14.866 35.304 22.484 55.374 22.484s40.136-7.432 55.374-22.484l96.996-94.952c14.866-14.494 22.856-33.632 22.856-54.258 0-20.44-8.176-39.764-22.856-54.258l-89.006-87.148c-30.474-29.916-80.272-29.916-110.746 0zM721.6 474.758c-30.102 0-58.346 11.334-79.53 32.146l-89.378 87.52c-21.368 20.812-33.076 48.312-33.076 77.856s11.706 57.417 33.076 78.228l81.944 80.272c44.038 42.924 115.578 42.924 159.616 0l89.378-87.334c20.998-20.626 32.704-48.312 32.89-77.856 0.186-29.358-11.52-57.046-32.89-78.042l-82.13-80.458c-21.368-20.812-49.798-32.332-79.9-32.332zM714.354 861.068c-28.43 0-56.86-10.592-78.414-31.588l-81.944-80.272c-20.998-20.44-32.518-47.754-32.518-76.928 0-28.988 11.52-56.116 32.518-76.556l89.378-87.52c20.812-20.44 48.684-31.588 78.228-31.588 29.73 0 57.602 11.334 78.6 31.774l82.13 80.458c20.998 20.626 32.518 47.94 32.332 76.742-0.186 29.174-11.706 56.302-32.332 76.556l-89.378 87.334c-21.74 20.998-50.17 31.588-78.6 31.588zM721.972 500.4c-20.254 0-40.508 7.618-56.116 22.67l-96.996 94.952c-14.866 14.68-23.226 34.19-23.226 54.816s8.176 40.136 23.226 54.816l89.006 87.148c14.866 14.68 34.934 22.67 56.116 22.67s41.066-7.99 56.116-22.67l96.996-94.952c14.866-14.68 23.226-34.19 23.226-54.816 0-20.812-8.176-40.136-23.226-54.816l-89.006-87.148c-15.422-15.052-35.862-22.67-56.116-22.67zM667.156 524.556c30.102-29.544 79.344-29.544 109.446 0l89.006 87.148c14.68 14.308 22.67 33.261 22.67 53.514s-7.99 39.208-22.67 53.514l-96.996 94.952c-14.68 14.308-34.004 22.112-54.816 22.112-20.626 0-40.136-7.804-54.816-22.112l-89.006-87.148c-14.68-14.308-22.67-33.261-22.67-53.514s7.99-39.208 22.67-53.514l97.182-94.952z" />
<glyph unicode="&#xe94f;" glyph-name="fanshouji" d="M784.286 865.343h-555.528c-19.874 0-36.218-16.158-36.218-36.218v-733.462c0-20.060 16.158-36.218 36.218-36.218h58.878c-4.83-1.672-8.358-6.314-8.358-11.702v-3.158c0-6.872 5.572-12.444 12.444-12.444h65.75c6.872 0 12.444 5.572 12.444 12.444v3.158c0 5.386-3.528 10.030-8.358 11.702h290.302c-4.83-1.672-8.358-6.314-8.358-11.702v-3.158c0-6.872 5.572-12.444 12.444-12.444h65.75c6.872 0 12.444 5.572 12.444 12.444v3.158c0 5.386-3.528 10.030-8.358 11.702h58.878c20.060 0 36.218 16.158 36.218 36.218v733.462c-0.372 20.060-16.53 36.218-36.59 36.218zM228.756 837.482h555.528c4.458 0 8.358-3.9 8.358-8.358v-244.054h-572.244v244.054c0 4.644 3.9 8.358 8.358 8.358zM792.644 557.212v-202.45h-572.244v202.45h572.244zM784.286 87.306h-555.528c-4.458 0-8.358 3.9-8.358 8.358v231.238h572.244v-231.238c0-4.458-3.9-8.358-8.358-8.358zM666.344 286.040h-319.462c-20.060 0-36.218-16.158-36.218-36.218v-79.866c0-20.060 16.158-36.218 36.218-36.218h319.462c20.060 0 36.218 16.158 36.218 36.218v79.866c0 20.060-16.344 36.218-36.218 36.218zM674.702 169.958c0-4.458-3.9-8.358-8.358-8.358h-319.462c-4.458 0-8.358 3.9-8.358 8.358v79.866c0 4.458 3.9 8.358 8.358 8.358h319.462c4.458 0 8.358-3.9 8.358-8.358v-79.866zM506.614 759.66v0c-7.616 0-13.93-4.272-13.93-9.286v-84.508c0-5.014 6.314-9.286 13.93-9.286v0c7.616 0 13.93 4.272 13.93 9.286v84.508c0 5.2-6.314 9.286-13.93 9.286zM324.595 759.66v0c-7.616 0-13.93-4.272-13.93-9.286v-84.508c0-5.014 6.314-9.286 13.93-9.286v0c7.616 0 13.93 4.272 13.93 9.286v84.508c0 5.2-6.314 9.286-13.93 9.286zM688.632 759.66v0c-7.616 0-13.93-4.272-13.93-9.286v-84.508c0-5.014 6.314-9.286 13.93-9.286v0c7.616 0 13.93 4.272 13.93 9.286v84.508c0 5.2-6.314 9.286-13.93 9.286zM506.614 507.62v0c-7.616 0-13.93-4.272-13.93-9.286v-84.508c0-5.014 6.314-9.286 13.93-9.286v0c7.616 0 13.93 4.272 13.93 9.286v84.323c-0.186 5.386-6.314 9.472-13.93 9.472zM324.595 507.62v0c-7.616 0-13.93-4.272-13.93-9.286v-84.508c0-5.014 6.314-9.286 13.93-9.286v0c7.616 0 13.93 4.272 13.93 9.286v84.323c0 5.386-6.5 9.472-13.93 9.472zM688.446 507.62v0c-7.616 0-13.93-4.272-13.93-9.286v-84.508c0-5.014 6.314-9.286 13.93-9.286v0c7.616 0 13.93 4.272 13.93 9.286v84.323c0 5.386-6.13 9.472-13.93 9.472z" />
<glyph unicode="&#xe950;" glyph-name="foodbar" d="M649.258 611.384c0-3.864 1.472-7.36 4.232-9.936 2.76-2.76 6.256-4.232 10.12-4.232s7.36 1.472 10.12 4.232l132.658 131.922c2.76 2.76 4.232 6.256 4.232 9.936 0 3.864-1.472 7.36-4.232 9.936-2.76 2.76-6.256 4.232-10.12 4.232s-7.36-1.472-10.12-4.232l-132.658-131.922c-2.76-2.576-4.232-6.072-4.232-9.936zM546.222 527.852l-30.542-30.358 19.872-20.424 42.502 41.582c3.128 3.128 12.88 12.88 4.048 26.678l-11.96 11.96c-7.36 7.176-11.408 16.928-11.408 27.23s4.048 20.056 11.408 27.414l180.68 179.76c2.76 2.76 4.232 6.256 4.232 9.936 0 3.864-1.472 7.36-4.232 9.936-2.76 2.76-6.256 4.232-10.12 4.232s-7.36-1.472-10.12-4.232l-180.68-179.576c-12.696-12.696-19.688-29.438-19.688-47.47 0-16.376 5.888-31.646 17.296-44.342l5.52-6.256-6.072-5.704c-0.368-0.184-0.736-0.368-0.736-0.368zM706.848 554.164c0-3.864 1.472-7.36 4.232-9.936 2.76-2.76 6.256-4.232 10.12-4.232s7.36 1.472 10.12 4.232l132.658 131.922c2.76 2.76 4.232 6.256 4.232 9.936 0 3.864-1.472 7.36-4.232 10.12s-6.256 4.232-10.12 4.232c-3.864 0-7.36-1.472-10.12-4.232l-132.658-131.922c-2.76-2.76-4.232-6.256-4.232-10.12zM923.038 640.456c-2.76 2.76-6.256 4.232-10.12 4.232s-7.36-1.472-10.12-4.232l-180.68-179.76c-7.36-7.36-17.112-11.224-27.414-11.224s-20.056 4.048-27.414 11.224l-23.367 23.183c-2.576 1.656-6.624 3.68-11.224 3.68-5.336 0-10.488-2.576-15.64-7.728l-42.87-42.686 19.872-20.424 31.094 30.91 0.736 0.92 6.44 6.808 14.904-14.72c12.696-12.696 29.622-19.504 47.654-19.504s34.958 6.992 47.654 19.504l180.68 179.76c2.76 2.76 4.232 6.256 4.232 9.936-0.368 3.864-1.84 7.36-4.416 10.12zM187.070 752.322l-4.416 4.416c-14.904 14.904-29.070 29.070-44.526 29.070-6.256 0-17.664-2.392-24.838-18.216-1.472-2.576-31.83-65.686 3.312-124.562 0.368-0.552 0.736-1.104 1.104-1.656l195.952-245.446c2.76-3.312 6.808-5.336 11.224-5.336 1.288 0 2.392 0.184 3.68 0.552l39.926 10.672 25.206-25.574-202.024-200.92c-10.12-9.936-15.64-23.367-15.64-37.534s5.52-27.598 15.64-37.534l4.232-4.232c10.12-9.936 23.551-15.456 37.718-15.456 14.352 0 27.782 5.52 37.718 15.456l201.288 200.184 197.056-199.816c10.304-10.488 24.102-16.192 38.822-16.192 14.168 0 27.414 5.336 37.534 15.088l3.312 3.312c10.304 9.936 16.192 23.367 16.376 37.718s-5.152 27.966-15.272 38.27l-563.384 577.734zM251.284 116.078c-4.416-4.416-10.856-6.992-17.664-6.992-6.624 0-13.064 2.576-17.664 6.992l-4.232 4.232c-4.6 4.6-7.176 10.856-7.176 17.48s2.576 12.88 7.176 17.48l201.84 200.736 39.006-39.558-201.288-200.368zM729.846 118.838l-3.312-3.312c-4.6-4.6-11.040-6.992-17.848-6.992-6.992 0-13.8 2.76-18.4 7.544l-307.266 311.498c-2.76 2.76-6.44 4.232-10.12 4.232-1.288 0-2.392-0.184-3.68-0.552l-38.822-10.304-189.512 237.35-0.368 0.736c-19.136 32.934-11.592 68.629-5.336 87.028l4.232 12.512 9.752-8.832c4.232-3.864 9.016-8.464 13.432-13.064l567.8-581.782c4.784-4.968 7.36-11.224 7.176-18.032-0.184-6.992-2.944-13.248-7.728-18.032z" />
<glyph unicode="&#xe951;" glyph-name="guanxichi" d="M925.624 399.295c-4.428 5.904-11.254 9.408-18.634 9.408h-86.71v54.056h-79.884v-54.056h-459.376v339.828h159.952v80.068h-240.020v-419.896h-83.942c-7.38 0-14.206-3.506-18.634-9.408s-5.72-13.284-3.69-20.478c26.012-88.186 80.99-167.332 154.602-223.232 76.010-57.744 166.962-88.186 262.528-88.186 95.75 0 186.518 30.44 262.528 88.186 73.61 55.716 128.588 135.046 154.602 223.232 2.398 7.010 1.106 14.574-3.32 20.478zM768.070 435.086h24.537v-24.537h-24.537v24.537zM228.626 800.926h184.488v-24.537h-159.952v-365.84h-24.537v386.504c0 0 0 3.874 0 3.874zM757.924 177.724c-71.212-54.056-156.262-82.466-245.924-82.466s-174.71 28.596-245.924 82.466c-67.338 51.104-117.888 123.054-142.978 203.122h777.804c-25.090-80.068-75.64-152.018-142.978-203.122zM620.11 166.286c0.738-7.748 7.933-13.284 15.682-11.808 47.23 8.486 78.038 33.762 95.934 54.056 5.35 6.088 4.244 14.76-2.214 19.556-0.184 0.184-0.554 0.369-0.738 0.554-5.534 4.058-13.468 3.136-18.080-2.030-14.76-16.788-40.588-37.82-79.884-44.83-6.826-1.292-11.438-7.564-10.7-14.39v-1.106zM760.589 269.537c7.641-0.155 13.708-6.477 13.551-14.117s-6.477-13.708-14.117-13.551c-7.641 0.155-13.708 6.477-13.551 14.117s6.477 13.708 14.117 13.551z" />
<glyph unicode="&#xe952;" glyph-name="health" d="M417.716 688.815h188.562c28.774 0 52.253 23.663 52.253 52.821v15.716c0 29.158-23.478 52.821-52.253 52.821h-188.562c-28.774 0-52.253-23.663-52.253-52.821v-15.716c0-29.158 23.478-52.821 52.253-52.821zM628.056 741.634c0-12.304-9.653-22.341-21.773-22.341h-188.562c-11.928 0-21.773 10.036-21.773 22.341v15.716c0 12.304 9.653 22.341 21.773 22.341h188.562c11.928 0 21.773-10.036 21.773-22.341v-15.716zM374.555 355.991h68.154v-68.154c0-20.635 16.848-37.486 37.486-37.486h63.612c20.635 0 37.486 16.848 37.486 37.486v68.154h68.154c20.635 0 37.486 16.848 37.486 37.486v63.612c0 20.635-16.848 37.486-37.486 37.486h-68.154v68.154c0 20.635-16.848 37.486-37.486 37.486h-63.612c-20.635 0-37.486-16.848-37.486-37.486v-68.154h-68.154c-20.635 0-37.486-16.848-37.486-37.486v-63.612c0.192-20.827 16.848-37.486 37.486-37.486zM473.381 479.049v83.492c0 3.789 3.028 6.817 6.817 6.817h63.612c3.789 0 6.817-3.028 6.817-6.817v-83.492c0-8.331 6.817-15.332 15.332-15.332h83.492c3.789 0 6.817-3.028 6.817-6.817v-63.612c0-3.789-3.028-6.817-6.817-6.817h-83.492c-8.331 0-15.332-6.817-15.332-15.332v-83.492c0-3.789-3.028-6.817-6.817-6.817h-63.612c-3.789 0-6.817 3.028-6.817 6.817v83.492c0 8.331-6.817 15.332-15.332 15.332h-83.492c-3.789 0-6.817 3.028-6.817 6.817v63.612c0 3.789 3.028 6.817 6.817 6.817h83.492c8.52 0.192 15.332 7.004 15.332 15.332zM768.339 764.544h-51.684c-8.331 0-15.332-6.817-15.332-15.332s6.817-15.332 15.332-15.332h51.684c73.080 0 132.526-59.446 132.526-132.526v-352.704c0-73.080-59.446-132.526-132.526-132.526h-512.682c-73.080 0-132.526 59.446-132.526 132.526v352.896c0 73.080 59.446 132.526 132.526 132.526h51.684c8.331 0 15.332 6.817 15.332 15.332s-6.817 15.332-15.332 15.332h-51.684c-89.926 0-163.006-73.080-163.006-163.006v-352.704c0-89.926 73.080-163.006 163.006-163.006h512.682c89.926 0 163.006 73.080 163.006 163.006v352.515c0 89.926-73.080 163.006-163.006 163.006z" />
<glyph unicode="&#xe953;" glyph-name="sleep" d="M874.604 474.109h-0.73c0.182 0.548 0.73 0.912 0.73 1.644v182.032c-8.398 5.478-16.798 11.138-25.744 15.884-30.126 15.336-63.538 25.196-98.776 28.666-65.546 50.574-147.342 81.066-236.442 81.066-89.282 0-171.078-30.49-236.624-81.066-35.42-3.652-69.198-13.876-99.506-29.212-8.946-4.564-17.346-10.59-25.744-16.25v-181.302c0-0.548 0.548-0.912 0.73-1.46h-0.73c-28.482 0-51.67-23.188-51.67-51.67v-296.876c0-7.12 5.66-12.964 12.964-12.964h77.414c7.12 0 12.964 5.66 12.964 12.964v64.634h619.678v-64.634c0-7.12 5.66-12.964 12.964-12.964h77.414c7.12 0 12.964 5.66 12.964 12.964v296.693c-0.366 28.666-23.37 51.852-51.852 51.852v0zM177.512 475.57v165.966c18.806 10.772 38.707 20.084 59.886 25.926 15.336 4.2 30.856 6.756 47.106 8.216 12.232 10.042 25.014 18.988 38.524 27.204 55.322 34.326 120.503 54.592 190.432 54.592 70.11 0 135.11-20.266 190.614-54.592 13.328-8.216 26.292-17.162 38.342-27.022 16.25-1.278 31.769-3.834 46.924-8.034 21.18-5.66 40.898-14.972 59.338-25.378v-166.878c0-0.548 0.548-0.912 0.73-1.644h-52.4c-0.182 71.024-57.696 128.72-128.902 128.72s-128.902-57.512-128.902-128.72h-51.852c-0.182 71.206-57.696 128.72-128.902 128.72s-128.902-57.512-128.902-128.72h-52.766c0.182 0.73 0.73 1.096 0.73 1.644v0zM564.766 474.109c0.182 56.782 46.376 102.976 103.158 102.976s102.976-46.010 103.158-102.976h-206.316zM254.926 474.109c0.182 56.782 46.376 102.976 103.158 102.976s102.976-46.010 103.158-102.976h-206.316zM125.842 422.256c0 14.242 11.502 25.744 25.744 25.744h722.836c14.242 0 25.744-11.502 25.744-25.744v-284.094h-51.488v64.634c0 7.12-5.66 12.964-12.964 12.964h-645.238c-7.12 0-12.964-5.66-12.964-12.964v-64.634h-51.67v284.094z" />
<glyph unicode="&#xe954;" glyph-name="linyushi" d="M342.181 741.619c-5.494 5.495-14.587 5.495-20.078 0l-19.32-19.32c-5.494-5.495-5.494-14.587 0-20.078s14.587-5.495 20.078 0l19.32 19.32c5.494 5.494 5.494 14.587 0 20.078zM542.221 521.501l-19.32-19.32c-5.495-5.495-5.495-14.587 0-20.078v0c5.494-5.495 14.587-5.495 20.078 0l19.32 19.32c5.495 5.494 5.495 14.587 0 20.078s-14.587 5.494-20.078 0zM452.243 631.56c-5.494 5.494-14.587 5.494-20.078 0l-19.51-19.32c-5.495-5.494-5.495-14.587 0-20.078s14.587-5.494 20.078 0l19.32 19.32c5.683 5.494 5.683 14.587 0.19 20.078zM265.839 666.606c-5.494 5.495-14.587 5.495-20.078 0l-19.32-19.32c-5.494-5.495-5.494-14.587 0-20.078v0c5.495-5.494 14.587-5.494 20.078 0l19.32 19.32c5.494 5.495 5.494 14.587 0 20.078zM465.882 446.484l-19.32-19.32c-5.494-5.495-5.494-14.587 0-20.078v0c5.494-5.495 14.587-5.495 20.078 0l19.32 19.32c5.494 5.495 5.494 14.587 0 20.078s-14.587 5.495-20.078 0zM375.899 556.545c-5.495 5.494-14.587 5.494-20.078 0l-19.32-19.32c-5.494-5.494-5.494-14.587 0-20.078v0c5.495-5.495 14.587-5.495 20.078 0l19.32 19.32c5.494 5.495 5.494 14.587 0 20.078zM170.744 590.264l-19.51-19.32c-5.495-5.495-5.495-14.587 0-20.078s14.587-5.495 20.078 0l19.32 19.32c5.495 5.494 5.495 14.587 0 20.078s-14.398 5.494-19.889 0zM390.866 370.145l-19.32-19.32c-5.494-5.494-5.494-14.587 0-20.078s14.587-5.495 20.078 0l19.32 19.32c5.494 5.495 5.494 14.587 0 20.078s-14.587 5.495-20.078 0zM280.804 480.202l-19.32-19.32c-5.494-5.494-5.494-14.587 0-20.078s14.587-5.495 20.078 0l19.32 19.32c5.495 5.495 5.495 14.587 0 20.078s-14.587 5.495-20.078 0zM822.579 721.92c0 71.985-58.534 130.519-130.519 130.519-30.119 0-57.966-10.229-80.129-27.659-74.448 58.534-182.803 53.42-251.378-14.966-0.379-0.379-0.758-0.758-0.948-0.948l-10.229-10.608 268.045-268.045 10.608 10.229c0.379 0.379 0.758 0.758 1.137 0.948 72.553 72.553 73.88 189.622 4.359 263.88 16.672 11.745 36.94 18.752 58.724 18.752 56.26 0 102.102-45.842 102.102-102.102 0-0.379 0-0.758 0-1.327v0-701.279h28.417v701.279c-0.19 0.569-0.19 0.948-0.19 1.327zM617.238 570.564l-227.32 227.32c63.272 54.365 159.125 51.717 219.173-8.334 59.861-59.861 62.704-155.714 8.144-218.983z" />
<glyph unicode="&#xe955;" glyph-name="msg" d="M123 482.664c0-190.348 174.431-345.264 388.916-345.264 26.704 0 54.436 2.74 82.508 8.044l2.396 0.512 58.714-39.884 0.856-0.684c0.344-0.344 0.856-0.684 1.368-1.028l50.328-33.892c2.396-1.712 5.308-2.568 8.216-2.568 2.568 0 4.792 0.512 7.020 1.884 4.792 2.568 7.704 7.704 7.704 13.18v114.348l2.91 1.884c104.588 64.534 167.068 170.492 167.068 283.472 0 190.52-174.431 345.436-388.916 345.436s-389.088-154.916-389.088-345.436zM701.408 206.212v-95.004l-25.336 17.116c-0.344 0.172-0.856 0.684-1.028 0.856l-66.76 45.363c-3.424 2.396-7.36 3.080-11.296 2.224-28.757-6.164-57.344-9.244-85.076-9.244-198.224 0-359.303 141.392-359.303 315.14s161.248 315.308 359.472 315.308c198.224 0 359.303-141.392 359.303-315.14 0-106.3-60.768-204.9-162.448-263.444-4.621-2.74-7.532-7.875-7.532-13.18zM336.972 551.304c-37.316 0-67.616-30.984-67.616-69.156s30.3-69.156 67.616-69.156c37.316 0 67.788 30.984 67.788 69.156s-30.3 69.156-67.788 69.156zM336.972 442.096c-21.74 0-39.2 17.972-39.2 40.056s17.632 40.056 39.2 40.056c21.74 0 39.372-17.972 39.372-40.056s-17.632-40.056-39.372-40.056zM513.112 551.476c-37.316 0-67.616-30.984-67.616-69.156s30.3-69.328 67.616-69.328c37.316 0 67.788 31.156 67.788 69.328s-30.468 69.156-67.788 69.156zM513.112 442.096c-21.74 0-39.2 17.972-39.2 40.228 0 22.082 17.632 40.056 39.2 40.056 21.74 0 39.372-17.972 39.372-40.056 0-22.252-17.632-40.228-39.372-40.228zM687.028 551.476c-37.316 0-67.616-30.984-67.616-69.156s30.3-69.328 67.616-69.328c37.316 0 67.616 31.156 67.616 69.328s-30.3 69.156-67.616 69.156zM687.028 442.096c-21.74 0-39.2 17.972-39.2 40.228 0 22.082 17.632 40.056 39.2 40.056s39.2-17.972 39.2-40.056c0-22.252-17.632-40.228-39.2-40.228z" />
<glyph unicode="&#xe956;" glyph-name="marketed" d="M272.948 608.344v0c5.492 0 10.434 3.294 12.63 8.42 37.706 87.678 125.018 149.362 226.422 149.362s188.716-61.502 226.422-149.362c2.196-5.126 7.138-8.42 12.63-8.42 9.884 0 16.474 10.068 12.63 19.22-41.916 97.562-138.928 166.019-251.682 166.019s-209.766-68.458-251.682-166.019c-3.844-9.152 2.746-19.22 12.63-19.22zM884.49 596.63h-744.98c-19.768 0-35.694-15.924-35.694-35.694v-68.458c0-19.768 15.924-35.694 35.694-35.694h22.698l53.998-318.31c0-19.768 15.924-35.694 35.694-35.694h501.9c19.768 0 35.694 15.924 35.694 35.694l72.118 318.31h23.064c19.768 0 35.694 15.924 35.694 35.694v68.458c-0.183 19.586-16.108 35.694-35.876 35.694zM762.036 138.294c0-4.393-3.844-8.236-8.236-8.236h-501.9c-4.393 0-8.236 3.844-8.236 8.236l-53.998 318.31h644.49l-72.118-318.31zM892.728 492.296c0-4.393-3.844-8.236-8.236-8.236h-744.98c-4.393 0-8.236 3.844-8.236 8.236v68.458c0 4.393 3.844 8.236 8.236 8.236h745.164c4.393 0 8.236-3.844 8.236-8.236v-68.458h-0.183zM510.17 208.582h3.66c6.59 0 11.898 3.478 11.898 7.87v142.040c0 4.393-5.308 7.87-11.898 7.87h-3.66c-6.59 0-11.898-3.478-11.898-7.87v-142.040c0-4.21 5.308-7.87 11.898-7.87zM365.566 208.582h3.66c6.59 0 11.898 3.478 11.898 7.87v142.040c0 4.393-5.308 7.87-11.898 7.87h-3.66c-6.59 0-11.898-3.478-11.898-7.87v-142.040c0-4.21 5.308-7.87 11.898-7.87zM654.772 208.582h3.66c6.59 0 11.898 3.478 11.898 7.87v142.040c0 4.393-5.308 7.87-11.898 7.87h-3.66c-6.59 0-11.898-3.478-11.898-7.87v-142.040c0-4.21 5.308-7.87 11.898-7.87z" />
<glyph unicode="&#xe957;" glyph-name="mombaby" d="M758.92 585.94h-28.034c0 0 0 0 0 0-11.324 89.3-76.304 163.375-163.375 186.024 0 0 0 0 0 0v33.232c0 30.076-23.578 55.696-53.654 56.438-31.19 0.928-56.81-24.32-56.81-55.324v-34.346c0 0 0 0 0 0-87.072-22.464-152.050-96.54-163.375-186.024 0 0 0 0 0 0h-28.59c-30.076 0-55.696-23.578-56.438-53.654-0.928-31.19 24.32-56.81 55.324-56.81h27.292c0 0 0 0 0 0v-414.192c0-14.852 12.068-26.92 26.92-26.92h387.458c14.852 0 26.92 12.068 26.92 26.92v414.008c0 0 0 0 0 0h27.292c31.004 0 56.068 25.62 55.324 56.81-0.556 30.262-26.178 53.84-56.253 53.84zM704.894 62.026h-385.788c0 0 0 0 0 0v413.264c0 0 0 0 0 0h385.602c0 0 0 0 0 0l0.186-413.264c0 0.186 0 0 0 0zM759.29 503.324h-494.58c-14.852 0-27.476 11.324-28.22 26.178-0.742 15.78 11.882 28.776 27.476 28.776h68.134c7.612 0 14.296 5.94 14.481 13.552 0.186 7.798-6.126 14.296-13.924 14.296h-11.324c0 0 0 0 0 0 11.51 79.831 72.22 144.996 152.050 161.148 6.498 1.3 11.14 7.054 11.14 13.738v44.556c0 14.852 11.324 27.476 26.178 28.22 15.78 0.742 28.776-11.882 28.776-27.476v-29.334c0 0 0 0 0 0-2.042 0.186-3.528 0.372-3.898 0.372-7.612 0.742-14.481-4.827-15.224-12.438s4.827-14.481 12.438-15.224c2.97-0.372 11.14-1.3 16.338-2.042 0.556-0.186 1.114-0.372 1.67-0.372 79.831-16.152 140.54-81.316 152.050-161.148 0 0 0 0 0 0h-10.768c-7.612 0-14.296-5.94-14.481-13.552-0.186-7.798 6.126-14.296 13.924-14.296h68.692c15.594 0 28.22-12.996 27.476-28.776-0.742-14.852-13.552-26.178-28.405-26.178zM608.54 392.676h54.582c7.612 0 14.296 5.94 14.481 13.552 0.186 7.798-6.126 14.296-13.924 14.296h-54.582c-7.612 0-14.296-5.94-14.481-13.552-0.186-7.798 6.126-14.296 13.924-14.296zM608.54 310.060h54.582c7.612 0 14.296 5.94 14.481 13.552 0.186 7.798-6.126 14.296-13.924 14.296h-54.582c-7.612 0-14.296-5.94-14.481-13.552-0.186-7.984 6.126-14.296 13.924-14.296zM608.54 227.258h54.582c7.612 0 14.296 5.94 14.481 13.552 0.186 7.798-6.126 14.296-13.924 14.296h-54.582c-7.612 0-14.296-5.94-14.481-13.552-0.186-7.798 6.126-14.296 13.924-14.296zM608.54 144.642h54.582c7.612 0 14.296 5.94 14.481 13.552 0.186 7.798-6.126 14.296-13.924 14.296h-54.582c-7.612 0-14.296-5.94-14.481-13.552-0.186-7.984 6.126-14.296 13.924-14.296z" />
</font>
</defs>
</svg>
